<svg width="902" height="831" viewBox="0 0 902 831" fill="none" xmlns="http://www.w3.org/2000/svg">
<g opacity="0.5">
<path opacity="0.5" d="M707.959 109.786C707.959 111.426 706.594 112.765 704.921 112.765C703.249 112.765 701.883 111.426 701.883 109.786C701.883 108.145 703.249 106.806 704.921 106.806C706.594 106.806 707.959 108.145 707.959 109.786Z" fill="white"/>
<path opacity="0.5" d="M734.088 109.786C734.088 111.426 732.723 112.765 731.05 112.765C729.377 112.765 728.012 111.426 728.012 109.786C728.012 108.145 729.377 106.806 731.05 106.806C732.723 106.822 734.088 108.145 734.088 109.786Z" fill="white"/>
<path opacity="0.5" d="M760.2 109.786C760.2 111.426 758.835 112.765 757.162 112.765C755.49 112.765 754.125 111.426 754.125 109.786C754.125 108.145 755.49 106.806 757.162 106.806C758.835 106.806 760.2 108.145 760.2 109.786Z" fill="white"/>
<path opacity="0.5" d="M707.959 135.415C707.959 137.056 706.594 138.395 704.921 138.395C703.249 138.395 701.883 137.056 701.883 135.415C701.883 133.775 703.249 132.435 704.921 132.435C706.594 132.435 707.959 133.775 707.959 135.415Z" fill="white"/>
<path opacity="0.5" d="M734.088 135.415C734.088 137.056 732.723 138.395 731.05 138.395C729.377 138.395 728.012 137.056 728.012 135.415C728.012 133.775 729.377 132.435 731.05 132.435C732.723 132.435 734.088 133.775 734.088 135.415Z" fill="white"/>
<path opacity="0.5" d="M760.2 135.415C760.2 137.056 758.835 138.395 757.162 138.395C755.49 138.395 754.125 137.056 754.125 135.415C754.125 133.775 755.49 132.435 757.162 132.435C758.835 132.435 760.2 133.775 760.2 135.415Z" fill="white"/>
<path opacity="0.5" d="M707.959 161.028C707.959 162.669 706.594 164.008 704.921 164.008C703.249 164.008 701.883 162.669 701.883 161.028C701.883 159.387 703.249 158.048 704.921 158.048C706.594 158.048 707.959 159.387 707.959 161.028Z" fill="white"/>
<path opacity="0.5" d="M734.088 161.028C734.088 162.669 732.723 164.008 731.05 164.008C729.377 164.008 728.012 162.669 728.012 161.028C728.012 159.387 729.377 158.048 731.05 158.048C732.723 158.065 734.088 159.387 734.088 161.028Z" fill="white"/>
<path opacity="0.5" d="M760.2 161.028C760.2 162.669 758.835 164.008 757.162 164.008C755.49 164.008 754.125 162.669 754.125 161.028C754.125 159.387 755.49 158.048 757.162 158.048C758.835 158.048 760.2 159.387 760.2 161.028Z" fill="white"/>
</g>
<g opacity="0.5">
<path opacity="0.5" d="M464.076 337.439C464.076 339.079 462.711 340.419 461.038 340.419C459.366 340.419 458 339.079 458 337.439C458 335.798 459.366 334.459 461.038 334.459C462.728 334.459 464.076 335.781 464.076 337.439Z" fill="white"/>
<path opacity="0.5" d="M487.167 340.419C488.845 340.419 490.205 339.084 490.205 337.439C490.205 335.793 488.845 334.459 487.167 334.459C485.49 334.459 484.129 335.793 484.129 337.439C484.129 339.084 485.49 340.419 487.167 340.419Z" fill="white"/>
<path opacity="0.5" d="M513.28 340.419C514.957 340.419 516.317 339.084 516.317 337.439C516.317 335.793 514.957 334.459 513.28 334.459C511.602 334.459 510.242 335.793 510.242 337.439C510.242 339.084 511.602 340.419 513.28 340.419Z" fill="white"/>
<path opacity="0.5" d="M464.076 363.052C464.076 364.692 462.711 366.031 461.038 366.031C459.366 366.031 458 364.692 458 363.052C458 361.411 459.366 360.072 461.038 360.072C462.728 360.072 464.076 361.411 464.076 363.052Z" fill="white"/>
<path opacity="0.5" d="M487.167 366.031C488.845 366.031 490.205 364.697 490.205 363.052C490.205 361.406 488.845 360.072 487.167 360.072C485.49 360.072 484.129 361.406 484.129 363.052C484.129 364.697 485.49 366.031 487.167 366.031Z" fill="white"/>
<path opacity="0.5" d="M513.28 366.031C514.957 366.031 516.317 364.697 516.317 363.052C516.317 361.406 514.957 360.072 513.28 360.072C511.602 360.072 510.242 361.406 510.242 363.052C510.242 364.697 511.602 366.031 513.28 366.031Z" fill="white"/>
<path opacity="0.5" d="M464.076 388.681C464.076 390.322 462.711 391.661 461.038 391.661C459.366 391.661 458 390.322 458 388.681C458 387.041 459.366 385.701 461.038 385.701C462.728 385.701 464.076 387.041 464.076 388.681Z" fill="white"/>
<path opacity="0.5" d="M490.205 388.681C490.205 390.322 488.84 391.661 487.167 391.661C485.495 391.661 484.129 390.322 484.129 388.681C484.129 387.041 485.495 385.701 487.167 385.701C488.84 385.701 490.205 387.041 490.205 388.681Z" fill="white"/>
<path opacity="0.5" d="M516.317 388.681C516.317 390.322 514.952 391.661 513.28 391.661C511.607 391.661 510.242 390.322 510.242 388.681C510.242 387.041 511.607 385.701 513.28 385.701C514.969 385.701 516.317 387.041 516.317 388.681Z" fill="white"/>
</g>
<g opacity="0.5">
<path opacity="0.5" d="M951.19 2.26819L841.145 110.211" stroke="white" stroke-width="2.1221" stroke-miterlimit="10"/>
<path opacity="0.5" d="M944.039 -4.74606L833.994 103.196" stroke="white" stroke-width="2.1221" stroke-miterlimit="10"/>
<path opacity="0.5" d="M936.889 -11.7603L826.843 96.1821" stroke="white" stroke-width="2.1221" stroke-miterlimit="10"/>
<path opacity="0.5" d="M929.738 -18.7745L819.692 89.1678" stroke="white" stroke-width="2.1221" stroke-miterlimit="10"/>
<path opacity="0.5" d="M922.587 -25.7888L812.541 82.1536" stroke="white" stroke-width="2.1221" stroke-miterlimit="10"/>
<path opacity="0.5" d="M915.436 -32.803L805.39 75.1393" stroke="white" stroke-width="2.1221" stroke-miterlimit="10"/>
<path opacity="0.5" d="M908.285 -39.8173L798.239 68.1251" stroke="white" stroke-width="2.1221" stroke-miterlimit="10"/>
<path opacity="0.5" d="M901.134 -46.8315L791.088 61.1108" stroke="white" stroke-width="2.1221" stroke-miterlimit="10"/>
<path opacity="0.5" d="M893.983 -53.8458L783.937 54.0966" stroke="white" stroke-width="2.1221" stroke-miterlimit="10"/>
<path opacity="0.5" d="M886.832 -60.86L776.786 47.0824" stroke="white" stroke-width="2.1221" stroke-miterlimit="10"/>
<path opacity="0.5" d="M879.681 -67.8743L769.635 40.0681" stroke="white" stroke-width="2.1221" stroke-miterlimit="10"/>
<path opacity="0.5" d="M872.53 -74.8718L762.501 33.0538" stroke="white" stroke-width="2.1221" stroke-miterlimit="10"/>
<path opacity="0.5" d="M865.396 -81.886L755.351 26.0564" stroke="white" stroke-width="2.1221" stroke-miterlimit="10"/>
<path opacity="0.5" d="M858.246 -88.9003L748.2 19.0421" stroke="white" stroke-width="2.1221" stroke-miterlimit="10"/>
<path opacity="0.5" d="M851.095 -95.9145L741.049 12.0279" stroke="white" stroke-width="2.1221" stroke-miterlimit="10"/>
<path opacity="0.5" d="M843.944 -102.929L733.898 5.01359" stroke="white" stroke-width="2.1221" stroke-miterlimit="10"/>
</g>
<g opacity="0.8">
<path opacity="0.8" d="M601.714 89.5703C695.663 -2.58216 695.663 -151.991 601.714 -244.143C507.766 -336.296 355.446 -336.296 261.498 -244.143C167.55 -151.991 167.55 -2.58217 261.498 89.5702C355.446 181.723 507.766 181.723 601.714 89.5703Z" stroke="white" stroke-width="0.5" stroke-miterlimit="10"/>
<path opacity="0.8" d="M593.146 81.1659C682.362 -6.34492 682.362 -148.228 593.146 -235.739C503.93 -323.25 359.282 -323.25 270.066 -235.739C180.85 -148.228 180.85 -6.34494 270.066 81.1659C359.282 168.677 503.93 168.677 593.146 81.1659Z" stroke="white" stroke-width="0.6562" stroke-miterlimit="10"/>
<path opacity="0.8" d="M431.609 134.895C551.079 134.895 647.929 39.8969 647.929 -77.2897C647.929 -194.476 551.079 -289.475 431.609 -289.475C312.138 -289.475 215.289 -194.476 215.289 -77.2897C215.289 39.8969 312.138 134.895 431.609 134.895Z" stroke="white" stroke-width="0.8125" stroke-miterlimit="10"/>
<path opacity="0.8" d="M431.608 123.01C544.386 123.01 635.811 33.3326 635.811 -77.2897C635.811 -187.912 544.386 -277.589 431.608 -277.589C318.83 -277.589 227.406 -187.912 227.406 -77.2897C227.406 33.3326 318.83 123.01 431.608 123.01Z" stroke="white" stroke-width="0.9688" stroke-miterlimit="10"/>
<path opacity="0.8" d="M567.43 55.9408C642.443 -17.6386 642.443 -136.934 567.43 -210.514C492.416 -284.093 370.796 -284.093 295.782 -210.514C220.769 -136.934 220.769 -17.6386 295.783 55.9408C370.796 129.52 492.416 129.52 567.43 55.9408Z" stroke="white" stroke-width="1.125" stroke-miterlimit="10"/>
<path opacity="0.8" d="M558.862 47.5365C629.143 -21.4013 629.143 -133.172 558.862 -202.109C488.581 -271.047 374.632 -271.047 304.351 -202.109C234.07 -133.172 234.07 -21.4013 304.351 47.5365C374.632 116.474 488.581 116.474 558.862 47.5365Z" stroke="white" stroke-width="1.2812" stroke-miterlimit="10"/>
<path opacity="0.8" d="M550.294 39.1321C615.843 -25.1641 615.843 -129.409 550.294 -193.705C484.744 -258.001 378.468 -258.001 312.919 -193.705C247.37 -129.409 247.37 -25.1641 312.919 39.1321C378.468 103.428 484.744 103.428 550.294 39.1321Z" stroke="white" stroke-width="1.4375" stroke-miterlimit="10"/>
<path opacity="0.8" d="M541.725 30.7277C602.542 -28.9269 602.542 -125.646 541.725 -185.301C480.908 -244.955 382.304 -244.955 321.487 -185.301C260.67 -125.646 260.67 -28.9268 321.487 30.7277C382.304 90.3823 480.908 90.3823 541.725 30.7277Z" stroke="white" stroke-width="1.5938" stroke-miterlimit="10"/>
<path opacity="0.8" d="M573.418 -54.8133C586.053 -131.618 532.82 -203.928 454.518 -216.322C376.217 -228.715 302.498 -176.5 289.862 -99.6948C277.227 -22.8898 330.46 49.4199 408.762 61.8136C487.064 74.2073 560.783 21.9916 573.418 -54.8133Z" stroke="white" stroke-width="1.75" stroke-miterlimit="10"/>
<path opacity="0.8" d="M431.609 51.6954C504.233 51.6954 563.107 -6.05318 563.107 -77.2897C563.107 -148.526 504.233 -206.275 431.609 -206.275C358.984 -206.275 300.11 -148.526 300.11 -77.2897C300.11 -6.05318 358.984 51.6954 431.609 51.6954Z" stroke="white" stroke-width="1.9062" stroke-miterlimit="10"/>
<path opacity="0.8" d="M516.021 5.51453C562.642 -40.2152 562.642 -114.358 516.021 -160.087C469.4 -205.817 393.813 -205.817 347.192 -160.087C300.571 -114.358 300.571 -40.2152 347.192 5.51452C393.813 51.2442 469.4 51.2442 516.021 5.51453Z" stroke="white" stroke-width="2.0625" stroke-miterlimit="10"/>
<path opacity="0.8" d="M507.44 -2.90168C549.323 -43.9832 549.323 -110.59 507.44 -151.671C465.558 -192.753 397.654 -192.753 355.772 -151.671C313.89 -110.59 313.89 -43.9832 355.772 -2.90168C397.654 38.1799 465.558 38.1799 507.44 -2.90168Z" stroke="white" stroke-width="2.2188" stroke-miterlimit="10"/>
<path opacity="0.8" d="M498.872 -11.3061C536.022 -47.746 536.022 -106.827 498.872 -143.267C461.722 -179.707 401.49 -179.707 364.34 -143.267C327.19 -106.827 327.19 -47.746 364.34 -11.3061C401.49 25.1339 461.722 25.1339 498.872 -11.3061Z" stroke="white" stroke-width="2.375" stroke-miterlimit="10"/>
<path opacity="0.8" d="M490.304 -19.7105C522.722 -51.5088 522.722 -103.064 490.304 -134.862C457.886 -166.661 405.326 -166.661 372.908 -134.862C340.49 -103.064 340.49 -51.5088 372.908 -19.7105C405.326 12.0879 457.886 12.0879 490.304 -19.7105Z" stroke="white" stroke-width="2.5312" stroke-miterlimit="10"/>
<path opacity="0.8" d="M501.992 -69.148C506.581 -107.289 478.779 -141.857 439.895 -146.358C401.011 -150.859 365.769 -123.589 361.18 -85.4482C356.592 -47.3074 384.393 -12.7393 423.277 -8.23818C462.161 -3.73702 497.403 -31.0073 501.992 -69.148Z" stroke="white" stroke-width="2.6875" stroke-miterlimit="10"/>
</g>
<g opacity="0.79">
<path opacity="0.79" d="M836.227 510.647C897.697 450.351 897.697 352.594 836.227 292.298C774.757 232.003 675.094 232.003 613.624 292.298C552.153 352.594 552.153 450.351 613.623 510.647C675.094 570.942 774.757 570.942 836.227 510.647Z" stroke="white" stroke-width="0.5" stroke-miterlimit="10"/>
<path opacity="0.79" d="M828.383 502.953C885.521 446.907 885.521 356.038 828.383 299.992C771.245 243.947 678.605 243.947 621.467 299.992C564.329 356.038 564.329 446.907 621.467 502.953C678.605 558.998 771.245 558.998 828.383 502.953Z" stroke="white" stroke-width="0.7273" stroke-miterlimit="10"/>
<path opacity="0.79" d="M724.932 534.106C799.611 534.106 860.151 474.723 860.151 401.471C860.151 328.219 799.611 268.837 724.932 268.837C650.252 268.837 589.712 328.219 589.712 401.471C589.712 474.723 650.252 534.106 724.932 534.106Z" stroke="white" stroke-width="0.9545" stroke-miterlimit="10"/>
<path opacity="0.79" d="M724.932 523.241C793.494 523.241 849.075 468.723 849.075 401.471C849.075 334.219 793.494 279.701 724.932 279.701C656.37 279.701 600.789 334.219 600.789 401.471C600.789 468.723 656.37 523.241 724.932 523.241Z" stroke="white" stroke-width="1.1818" stroke-miterlimit="10"/>
<path opacity="0.79" d="M724.932 512.36C787.367 512.36 837.981 462.713 837.981 401.471C837.981 340.229 787.367 290.582 724.932 290.582C662.496 290.582 611.882 340.229 611.882 401.471C611.882 462.713 662.496 512.36 724.932 512.36Z" stroke="white" stroke-width="1.4091" stroke-miterlimit="10"/>
<path opacity="0.79" d="M724.932 501.479C781.241 501.479 826.888 456.704 826.888 401.471C826.888 346.239 781.241 301.464 724.932 301.464C668.623 301.464 622.976 346.239 622.976 401.471C622.976 456.704 668.623 501.479 724.932 501.479Z" stroke="white" stroke-width="1.6364" stroke-miterlimit="10"/>
<path opacity="0.79" d="M724.932 490.596C775.114 490.596 815.795 450.693 815.795 401.47C815.795 352.247 775.114 312.344 724.932 312.344C674.75 312.344 634.069 352.247 634.069 401.47C634.069 450.693 674.75 490.596 724.932 490.596Z" stroke="white" stroke-width="1.8636" stroke-miterlimit="10"/>
<path opacity="0.79" d="M724.932 479.715C768.987 479.715 804.701 444.684 804.701 401.47C804.701 358.257 768.987 323.225 724.932 323.225C680.876 323.225 645.162 358.257 645.162 401.47C645.162 444.684 680.876 479.715 724.932 479.715Z" stroke="white" stroke-width="2.0909" stroke-miterlimit="10"/>
<path opacity="0.79" d="M724.932 468.834C762.861 468.834 793.608 438.674 793.608 401.47C793.608 364.267 762.861 334.107 724.932 334.107C687.003 334.107 656.256 364.267 656.256 401.47C656.256 438.674 687.003 468.834 724.932 468.834Z" stroke="white" stroke-width="2.3182" stroke-miterlimit="10"/>
<path opacity="0.79" d="M724.932 457.953C756.734 457.953 782.515 432.665 782.515 401.47C782.515 370.276 756.734 344.988 724.932 344.988C693.13 344.988 667.349 370.276 667.349 401.47C667.349 432.665 693.13 457.953 724.932 457.953Z" stroke="white" stroke-width="2.5454" stroke-miterlimit="10"/>
<path opacity="0.79" d="M724.932 447.071C750.607 447.071 771.422 426.655 771.422 401.47C771.422 376.286 750.607 355.869 724.932 355.869C699.256 355.869 678.442 376.286 678.442 401.47C678.442 426.655 699.256 447.071 724.932 447.071Z" stroke="white" stroke-width="2.7727" stroke-miterlimit="10"/>
<path opacity="0.79" d="M724.932 436.19C744.481 436.19 760.328 420.645 760.328 401.47C760.328 382.295 744.481 366.751 724.932 366.751C705.383 366.751 689.536 382.295 689.536 401.47C689.536 420.645 705.383 436.19 724.932 436.19Z" stroke="white" stroke-width="3" stroke-miterlimit="10"/>
</g>
<g opacity="0.89">
<g opacity="0.89">
<path opacity="0.89" d="M341.849 453.86C418.102 453.86 479.918 393.226 479.918 318.43C479.918 243.634 418.102 183 341.849 183C265.595 183 203.779 243.634 203.779 318.43C203.779 393.226 265.595 453.86 341.849 453.86Z" stroke="white" stroke-width="0.8127" stroke-linecap="round" stroke-linejoin="round"/>
</g>
<g opacity="0.89">
<path opacity="0.89" d="M341.849 443.983C412.541 443.983 469.849 387.771 469.849 318.43C469.849 249.089 412.541 192.877 341.849 192.877C271.156 192.877 213.849 249.089 213.849 318.43C213.849 387.771 271.156 443.983 341.849 443.983Z" stroke="white" stroke-width="0.9493" stroke-linecap="round" stroke-linejoin="round"/>
</g>
<g opacity="0.89">
<path opacity="0.89" d="M341.849 434.107C406.98 434.107 459.779 382.316 459.779 318.43C459.779 254.544 406.98 202.754 341.849 202.754C276.717 202.754 223.918 254.544 223.918 318.43C223.918 382.316 276.717 434.107 341.849 434.107Z" stroke="white" stroke-width="1.0859" stroke-linecap="round" stroke-linejoin="round"/>
</g>
<g opacity="0.89">
<path opacity="0.89" d="M341.849 424.23C401.419 424.23 449.71 376.862 449.71 318.43C449.71 259.999 401.419 212.631 341.849 212.631C282.278 212.631 233.987 259.999 233.987 318.43C233.987 376.862 282.278 424.23 341.849 424.23Z" stroke="white" stroke-width="1.2225" stroke-linecap="round" stroke-linejoin="round"/>
</g>
<g opacity="0.89">
<path opacity="0.89" d="M341.849 414.353C395.858 414.353 439.641 371.407 439.641 318.43C439.641 265.454 395.858 222.507 341.849 222.507C287.84 222.507 244.057 265.454 244.057 318.43C244.057 371.407 287.84 414.353 341.849 414.353Z" stroke="white" stroke-width="1.3591" stroke-linecap="round" stroke-linejoin="round"/>
</g>
<g opacity="0.89">
<path opacity="0.89" d="M341.849 404.476C390.297 404.476 429.571 365.952 429.571 318.43C429.571 270.908 390.297 232.384 341.849 232.384C293.401 232.384 254.126 270.908 254.126 318.43C254.126 365.952 293.401 404.476 341.849 404.476Z" stroke="white" stroke-width="1.4956" stroke-linecap="round" stroke-linejoin="round"/>
</g>
<g opacity="0.89">
<path opacity="0.89" d="M341.849 394.599C384.735 394.599 419.502 360.497 419.502 318.43C419.502 276.363 384.735 242.261 341.849 242.261C298.962 242.261 264.195 276.363 264.195 318.43C264.195 360.497 298.962 394.599 341.849 394.599Z" stroke="white" stroke-width="1.6322" stroke-linecap="round" stroke-linejoin="round"/>
</g>
<g opacity="0.89">
<path opacity="0.89" d="M341.849 384.722C379.174 384.722 409.433 355.042 409.433 318.43C409.433 281.818 379.174 252.138 341.849 252.138C304.523 252.138 274.265 281.818 274.265 318.43C274.265 355.042 304.523 384.722 341.849 384.722Z" stroke="white" stroke-width="1.7688" stroke-linecap="round" stroke-linejoin="round"/>
</g>
<g opacity="0.89">
<path opacity="0.89" d="M341.849 374.862C373.623 374.862 399.38 349.597 399.38 318.43C399.38 287.264 373.623 261.998 341.849 261.998C310.075 261.998 284.317 287.264 284.317 318.43C284.317 349.597 310.075 374.862 341.849 374.862Z" stroke="white" stroke-width="1.9054" stroke-linecap="round" stroke-linejoin="round"/>
</g>
<g opacity="0.89">
<path opacity="0.89" d="M341.849 364.985C368.061 364.985 389.311 344.142 389.311 318.43C389.311 292.718 368.061 271.875 341.849 271.875C315.636 271.875 294.386 292.718 294.386 318.43C294.386 344.142 315.636 364.985 341.849 364.985Z" stroke="white" stroke-width="2.042" stroke-linecap="round" stroke-linejoin="round"/>
</g>
<g opacity="0.89">
<path opacity="0.89" d="M341.849 355.108C362.5 355.108 379.242 338.687 379.242 318.43C379.242 298.173 362.5 281.752 341.849 281.752C321.197 281.752 304.456 298.173 304.456 318.43C304.456 338.687 321.197 355.108 341.849 355.108Z" stroke="white" stroke-width="2.1786" stroke-linecap="round" stroke-linejoin="round"/>
</g>
<g opacity="0.89">
<path opacity="0.89" d="M341.849 345.232C356.939 345.232 369.172 333.232 369.172 318.43C369.172 303.628 356.939 291.629 341.849 291.629C326.758 291.629 314.525 303.628 314.525 318.43C314.525 333.232 326.758 345.232 341.849 345.232Z" stroke="white" stroke-width="2.3152" stroke-linecap="round" stroke-linejoin="round"/>
</g>
</g>
<g opacity="0.49">
<path opacity="0.49" d="M245.668 164.66C249.513 164.66 252.631 161.602 252.631 157.83C252.631 154.058 249.513 151 245.668 151C241.822 151 238.705 154.058 238.705 157.83C238.705 161.602 241.822 164.66 245.668 164.66Z" stroke="white" stroke-width="2" stroke-miterlimit="10" stroke-linecap="round" stroke-linejoin="round"/>
<path opacity="0.49" d="M722.067 621.607C722.067 625.374 718.943 628.437 715.103 628.437C711.263 628.437 708.14 625.374 708.14 621.607C708.14 617.841 711.263 614.777 715.103 614.777C718.943 614.777 722.067 617.841 722.067 621.607Z" stroke="white" stroke-width="2" stroke-miterlimit="10" stroke-linecap="round" stroke-linejoin="round"/>
<path opacity="0.49" d="M504.33 284.17C504.33 287.937 501.207 291 497.367 291C493.527 291 490.404 287.937 490.404 284.17C490.404 280.404 493.527 277.34 497.367 277.34C501.224 277.34 504.33 280.387 504.33 284.17Z" stroke="white" stroke-width="2" stroke-miterlimit="10" stroke-linecap="round" stroke-linejoin="round"/>
<path opacity="0.49" d="M14.9264 506.701C14.9264 510.468 11.8032 513.531 7.9632 513.531C4.1232 513.531 1 510.468 1 506.701C1 502.934 4.1232 499.871 7.9632 499.871C11.8203 499.871 14.9264 502.934 14.9264 506.701Z" stroke="white" stroke-width="2" stroke-miterlimit="10" stroke-linecap="round" stroke-linejoin="round"/>
<path opacity="0.49" d="M85.4118 306.552C85.4118 310.319 82.2886 313.382 78.4486 313.382C74.6086 313.382 71.4854 310.319 71.4854 306.552C71.4854 302.786 74.6086 299.722 78.4486 299.722C82.2886 299.722 85.4118 302.786 85.4118 306.552Z" stroke="white" stroke-width="2" stroke-miterlimit="10" stroke-linecap="round" stroke-linejoin="round"/>
<g opacity="0.49">
<path opacity="0.49" d="M634.31 216.338V228.291" stroke="white" stroke-width="2" stroke-miterlimit="10" stroke-linecap="round" stroke-linejoin="round"/>
<path opacity="0.49" d="M640.402 222.314H628.234" stroke="white" stroke-width="2" stroke-miterlimit="10" stroke-linecap="round" stroke-linejoin="round"/>
</g>
<g opacity="0.49">
<path opacity="0.49" d="M287.43 507.505V519.44" stroke="white" stroke-width="2" stroke-miterlimit="10" stroke-linecap="round" stroke-linejoin="round"/>
<path opacity="0.49" d="M293.523 513.464H281.354" stroke="white" stroke-width="2" stroke-miterlimit="10" stroke-linecap="round" stroke-linejoin="round"/>
</g>
<g opacity="0.49">
<g opacity="0.49">
<path opacity="0.49" d="M872.953 758.41V770.346" stroke="white" stroke-width="2" stroke-miterlimit="10" stroke-linecap="round" stroke-linejoin="round"/>
<path opacity="0.49" d="M879.029 764.37H866.86" stroke="white" stroke-width="2" stroke-miterlimit="10" stroke-linecap="round" stroke-linejoin="round"/>
</g>
<g opacity="0.49">
<path opacity="0.49" d="M836.157 758.41V770.346" stroke="white" stroke-width="2" stroke-miterlimit="10" stroke-linecap="round" stroke-linejoin="round"/>
<path opacity="0.49" d="M842.233 764.37H830.064" stroke="white" stroke-width="2" stroke-miterlimit="10" stroke-linecap="round" stroke-linejoin="round"/>
</g>
</g>
<g opacity="0.49">
<g opacity="0.49">
<path opacity="0.49" d="M85.4116 224.39V236.326" stroke="white" stroke-width="2" stroke-miterlimit="10" stroke-linecap="round" stroke-linejoin="round"/>
<path opacity="0.49" d="M91.4873 230.366H79.3188" stroke="white" stroke-width="2" stroke-miterlimit="10" stroke-linecap="round" stroke-linejoin="round"/>
</g>
<g opacity="0.49">
<path opacity="0.49" d="M48.6162 224.39V236.326" stroke="white" stroke-width="2" stroke-miterlimit="10" stroke-linecap="round" stroke-linejoin="round"/>
<path opacity="0.49" d="M54.709 230.366H42.5234" stroke="white" stroke-width="2" stroke-miterlimit="10" stroke-linecap="round" stroke-linejoin="round"/>
</g>
<g opacity="0.49">
<path opacity="0.49" d="M11.8203 224.39V236.326" stroke="white" stroke-width="2" stroke-miterlimit="10" stroke-linecap="round" stroke-linejoin="round"/>
<path opacity="0.49" d="M17.9132 230.366H5.74463" stroke="white" stroke-width="2" stroke-miterlimit="10" stroke-linecap="round" stroke-linejoin="round"/>
</g>
</g>
<path opacity="0.49" d="M432.138 472.986L441.61 456.898H422.666L432.138 472.986Z" stroke="white" stroke-width="2" stroke-miterlimit="10" stroke-linecap="round" stroke-linejoin="round"/>
<path opacity="0.49" d="M885.121 228.291L875.649 244.378H894.593L885.121 228.291Z" stroke="white" stroke-width="2" stroke-miterlimit="10" stroke-linecap="round" stroke-linejoin="round"/>
<path opacity="0.49" d="M417.427 716.71C421.557 712.659 428.793 719.757 432.923 715.705C437.053 711.654 429.817 704.556 433.947 700.505C438.077 696.454 445.314 703.552 449.444 699.501C453.574 695.449 446.338 688.352 450.451 684.3C454.581 680.249 461.817 687.347 465.947 683.296C470.077 679.245 462.841 672.147 466.971 668.079C471.101 664.028 478.338 671.126 482.485 667.074" stroke="white" stroke-width="2" stroke-miterlimit="10" stroke-linecap="round" stroke-linejoin="round"/>
<path opacity="0.49" d="M777.175 683.614C781.305 679.563 788.541 686.661 792.671 682.609C796.802 678.558 789.565 671.46 793.695 667.409C797.825 663.358 805.062 670.456 809.192 666.405C813.322 662.354 806.086 655.256 810.199 651.204C814.329 647.153 821.565 654.251 825.695 650.2C829.825 646.149 822.589 639.051 826.719 634.983C830.849 630.932 838.086 638.03 842.233 633.979" stroke="white" stroke-width="2" stroke-miterlimit="10" stroke-linecap="round" stroke-linejoin="round"/>
<path opacity="0.49" d="M797.536 224.089C801.666 220.038 808.902 227.135 813.032 223.084C817.162 219.033 809.926 211.935 814.056 207.884C818.186 203.833 825.423 210.931 829.553 206.88C833.683 202.828 826.447 195.73 830.56 191.679C834.69 187.628 841.926 194.726 846.056 190.675C850.186 186.624 842.95 179.526 847.08 175.458C851.21 171.407 858.447 178.504 862.594 174.453" stroke="white" stroke-width="2" stroke-miterlimit="10" stroke-linecap="round" stroke-linejoin="round"/>
</g>
<g opacity="0.72">
<path opacity="0.5" d="M647.639 647L389.779 909.785L647.639 1172.57L905.498 909.785L647.639 647Z" stroke="white" stroke-width="30" stroke-miterlimit="10"/>
</g>
<path opacity="0.5" d="M439.032 534.5C465.66 561.637 465.66 605.614 439.032 632.75L157.66 919.48C131.032 946.617 87.8791 946.617 61.2515 919.48C34.6239 892.344 34.6239 848.367 61.2515 821.231L342.607 534.5C369.235 507.364 412.404 507.364 439.032 534.5Z" fill="url(#paint0_linear_649_5275)"/>
<path opacity="0.5" d="M428.798 723.266C441.48 736.189 441.48 757.132 428.798 770.039L301.262 900.011C288.58 912.935 268.03 912.935 255.366 900.011C242.684 887.088 242.684 866.145 255.366 853.239L382.902 723.266C395.584 710.359 416.133 710.359 428.798 723.266Z" fill="url(#paint1_linear_649_5275)"/>
<defs>
<linearGradient id="paint0_linear_649_5275" x1="439.024" y1="534.496" x2="54.1104" y2="912.195" gradientUnits="userSpaceOnUse">
<stop stop-color="white"/>
<stop offset="1" stop-opacity="0"/>
</linearGradient>
<linearGradient id="paint1_linear_649_5275" x1="428.804" y1="723.27" x2="252.08" y2="896.681" gradientUnits="userSpaceOnUse">
<stop stop-color="white"/>
<stop offset="1" stop-opacity="0"/>
</linearGradient>
</defs>
</svg>
