<svg width="195" height="53" viewBox="0 0 195 53" fill="none" xmlns="http://www.w3.org/2000/svg">
<g filter="url(#filter0_d_278_2068)">
<path d="M25.5008 43.5754C29.0425 43.5754 32.3447 42.5517 35.1344 40.7908L26.9622 34.2349C26.1569 34.4091 25.2448 34.4528 24.274 34.3368C20.8848 33.9328 18.0627 31.7427 17.9734 29.4465C17.8831 27.1503 20.5585 25.6167 23.9486 26.0205C24.4339 26.0781 24.9086 26.1741 25.3632 26.3007C25.1409 25.8831 24.9447 25.4412 24.7831 24.9804C23.6531 21.7591 24.5715 18.8144 26.8319 18.404C29.0933 17.9927 31.8429 20.2732 32.9717 23.4943C33.2953 24.4171 33.4503 25.3164 33.4545 26.1406L41.9599 32.9645C42.9928 30.6879 43.5743 28.1635 43.5743 25.5C43.5743 15.5179 35.4822 7.42468 25.499 7.42468C15.5168 7.42468 7.42358 15.5179 7.42358 25.5C7.42348 35.482 15.5186 43.5754 25.5008 43.5754Z" fill="#39C442"/>
<path d="M25.5008 43.5754C29.0425 43.5754 32.3447 42.5517 35.1344 40.7908L26.9622 34.2349C26.1569 34.4091 25.2448 34.4528 24.274 34.3368C20.8848 33.9328 18.0627 31.7427 17.9734 29.4465C17.8831 27.1503 20.5585 25.6167 23.9486 26.0205C24.4339 26.0781 24.9086 26.1741 25.3632 26.3007C25.1409 25.8831 24.9447 25.4412 24.7831 24.9804C23.6531 21.7591 24.5715 18.8144 26.8319 18.404C29.0933 17.9927 31.8429 20.2732 32.9717 23.4943C33.2953 24.4171 33.4503 25.3164 33.4545 26.1406L41.9599 32.9645C42.9928 30.6879 43.5743 28.1635 43.5743 25.5C43.5743 15.5179 35.4822 7.42468 25.499 7.42468C15.5168 7.42468 7.42358 15.5179 7.42358 25.5C7.42348 35.482 15.5186 43.5754 25.5008 43.5754Z" stroke="#061407"/>
</g>
<g filter="url(#filter1_d_278_2068)">
<path d="M25.4993 50.5C39.2835 50.5 50.4985 39.285 50.4985 25.5C50.4985 11.7155 39.2835 0.5 25.4993 0.5C11.7143 0.5 0.5 11.7145 0.5 25.5C0.5 39.2844 11.7143 50.5 25.4993 50.5ZM25.4993 4.78613C36.9205 4.78613 46.2116 14.0783 46.2116 25.5C46.2116 36.9213 36.9199 46.2137 25.4993 46.2137C14.0774 46.2137 4.78538 36.9214 4.78538 25.5C4.78634 14.0783 14.0773 4.78613 25.4993 4.78613Z" fill="#39C442"/>
<path d="M25.4993 50.5C39.2835 50.5 50.4985 39.285 50.4985 25.5C50.4985 11.7155 39.2835 0.5 25.4993 0.5C11.7143 0.5 0.5 11.7145 0.5 25.5C0.5 39.2844 11.7143 50.5 25.4993 50.5ZM25.4993 4.78613C36.9205 4.78613 46.2116 14.0783 46.2116 25.5C46.2116 36.9213 36.9199 46.2137 25.4993 46.2137C14.0774 46.2137 4.78538 36.9214 4.78538 25.5C4.78634 14.0783 14.0773 4.78613 25.4993 4.78613Z" stroke="#061407"/>
</g>
<g filter="url(#filter2_d_278_2068)">
<mask id="path-3-outside-1_278_2068" maskUnits="userSpaceOnUse" x="55.4985" y="4.85352" width="138" height="41" fill="black">
<rect fill="white" x="55.4985" y="4.85352" width="138" height="41"/>
<path d="M60.4985 10.8574C61.3188 10.9512 62.0103 11.0215 62.5728 11.0684C63.1353 11.0918 63.5806 11.1152 63.9087 11.1387C64.3071 11.1621 64.6235 11.1738 64.8579 11.1738C65.2563 11.1738 65.7134 11.1621 66.229 11.1387C66.6743 11.1152 67.1899 11.0801 67.7759 11.0332C68.3853 10.9629 69.0415 10.8574 69.7446 10.7168C69.4165 11.0684 69.147 11.4082 68.936 11.7363C68.7251 12.041 68.561 12.3223 68.4438 12.5801C68.3032 12.8613 68.186 13.1191 68.0923 13.3535C67.9985 13.6582 67.8931 14.127 67.7759 14.7598C67.6587 15.2988 67.5298 16.0605 67.3892 17.0449C67.272 18.0293 67.1196 19.3184 66.9321 20.9121C67.729 20.9355 68.4204 20.9473 69.0063 20.9473C69.5923 20.9238 70.0845 20.9121 70.4829 20.9121H71.6431C71.9712 20.8887 72.3462 20.8652 72.7681 20.8418C73.4712 20.8184 74.5376 20.748 75.9673 20.6309C76.0845 19.5527 76.1431 18.627 76.1431 17.8535C76.1665 17.0566 76.1548 16.3887 76.1079 15.8496C76.061 15.2402 75.9907 14.7246 75.897 14.3027C75.8267 14.0684 75.7212 13.7871 75.5806 13.459C75.4634 13.1777 75.2993 12.8379 75.0884 12.4395C74.9009 12.0176 74.6431 11.5137 74.3149 10.9277C74.9243 11.0215 75.4634 11.0918 75.9321 11.1387C76.4243 11.1621 76.8345 11.1855 77.1626 11.209C77.5376 11.2324 77.854 11.2441 78.1118 11.2441C78.3696 11.2441 78.7095 11.2324 79.1313 11.209C79.4829 11.1855 79.9165 11.1738 80.4321 11.1738C80.9478 11.1504 81.5806 11.1152 82.3306 11.0684C82.1431 11.3965 81.979 11.7363 81.8384 12.0879C81.6978 12.4395 81.5806 12.7559 81.4868 13.0371C81.3931 13.3652 81.2993 13.6934 81.2056 14.0215C81.0884 14.5137 80.9829 15.2285 80.8892 16.166C80.8188 17.1035 80.7485 18.1465 80.6782 19.2949C80.6313 20.4434 80.5845 21.6387 80.5376 22.8809C80.5142 24.123 80.4907 25.2949 80.4673 26.3965C80.4673 27.498 80.479 28.4824 80.5024 29.3496C80.5259 30.1934 80.5728 30.791 80.6431 31.1426C80.7134 31.5645 80.8306 31.998 80.9946 32.4434C81.1353 32.8418 81.3228 33.2754 81.5571 33.7441C81.7915 34.1895 82.0962 34.6113 82.4712 35.0098L73.9985 35.6426C74.3501 35.3145 74.6313 34.998 74.8423 34.6934C75.0532 34.3652 75.2173 34.084 75.3345 33.8496C75.4517 33.5918 75.5337 33.3457 75.5806 33.1113C75.604 32.8301 75.6392 32.3379 75.686 31.6348C75.7329 31.0488 75.7798 30.2168 75.8267 29.1387C75.8735 28.0605 75.9204 26.6309 75.9673 24.8496C75.6392 24.8496 75.2407 24.8613 74.772 24.8848C74.3267 24.8848 73.9048 24.8965 73.5063 24.9199C73.0376 24.9434 72.5454 24.9551 72.0298 24.9551C71.5142 24.9785 70.9751 25.002 70.4126 25.0254C69.9438 25.0723 69.4165 25.1191 68.8306 25.166C68.2681 25.1895 67.7056 25.2246 67.1431 25.2715C67.0962 26.2559 67.0962 27.123 67.1431 27.873C67.1899 28.5996 67.2603 29.2207 67.354 29.7363C67.4478 30.3457 67.5649 30.873 67.7056 31.3184C67.8462 31.7402 67.9985 32.1621 68.1626 32.584C68.3032 32.959 68.4673 33.3574 68.6548 33.7793C68.8657 34.2012 69.0767 34.5762 69.2876 34.9043C68.8423 34.8574 68.4321 34.8223 68.0571 34.7988C67.6821 34.752 67.354 34.7051 67.0728 34.6582C66.7446 34.6348 66.4282 34.6113 66.1235 34.5879C65.8188 34.5879 65.4556 34.5762 65.0337 34.5527C64.6587 34.5293 64.1899 34.5176 63.6274 34.5176C63.0649 34.4941 62.4087 34.4824 61.6587 34.4824C62.104 34.0371 62.4556 33.6035 62.7134 33.1816C62.9946 32.7363 63.1938 32.3379 63.311 31.9863C63.4517 31.5645 63.5454 31.1777 63.5923 30.8262C63.6157 30.5215 63.6274 29.9473 63.6274 29.1035C63.6509 28.2598 63.6509 27.2988 63.6274 26.2207C63.6274 25.1191 63.6157 23.9707 63.5923 22.7754C63.5688 21.5566 63.5337 20.4199 63.4868 19.3652C63.4634 18.3105 63.4282 17.4082 63.3813 16.6582C63.3579 15.8848 63.3345 15.4043 63.311 15.2168C63.1938 14.7949 63.0181 14.3379 62.7837 13.8457C62.5728 13.4473 62.2915 12.9902 61.9399 12.4746C61.5884 11.9355 61.1079 11.3965 60.4985 10.8574Z"/>
<path d="M92.4907 30.1582C93.147 30.1582 93.7563 30.0879 94.3188 29.9473C94.7876 29.8301 95.2329 29.6426 95.6548 29.3848C96.1001 29.1035 96.3931 28.6934 96.5337 28.1543C97.0024 28.248 97.4009 28.3301 97.729 28.4004C98.0571 28.4473 98.3384 28.4941 98.5728 28.541C98.8306 28.6113 99.0532 28.6582 99.2407 28.6816C99.4282 28.7285 99.6509 28.7754 99.9087 28.8223C100.143 28.8691 100.424 28.9277 100.752 28.998C101.104 29.0449 101.514 29.1152 101.983 29.209C101.631 29.1621 101.268 29.1973 100.893 29.3145C100.542 29.4316 100.202 29.5605 99.8735 29.7012C99.4985 29.8652 99.147 30.0645 98.8188 30.2988C98.6079 30.4395 98.3618 30.6504 98.0806 30.9316C97.8228 31.2129 97.4478 31.4824 96.9556 31.7402C96.4634 31.998 95.8071 32.2207 94.9868 32.4082C94.1899 32.5723 93.1587 32.6309 91.8931 32.584C90.3696 32.5371 89.0923 32.2676 88.061 31.7754C87.0298 31.2598 86.1978 30.6387 85.5649 29.9121C84.9321 29.1621 84.4751 28.3535 84.1938 27.4863C83.9126 26.6191 83.7603 25.8105 83.7368 25.0605C83.7134 24.3105 83.936 23.5254 84.4048 22.7051C84.8735 21.8848 85.5298 21.1348 86.3735 20.4551C87.2407 19.7754 88.2837 19.2246 89.5024 18.8027C90.7212 18.3574 92.0571 18.1348 93.5103 18.1348C94.354 18.1348 95.1274 18.2402 95.8306 18.4512C96.5571 18.6387 97.2134 18.8965 97.7993 19.2246C98.4087 19.5527 98.936 19.9277 99.3813 20.3496C99.8267 20.748 100.202 21.1582 100.506 21.5801C100.811 22.0254 101.069 22.4941 101.28 22.9863C101.467 23.4082 101.62 23.8887 101.737 24.4277C101.854 24.9668 101.889 25.5176 101.842 26.0801C100.061 26.127 98.6196 26.1621 97.5181 26.1855C96.4399 26.209 95.5962 26.2207 94.9868 26.2207H92.2095C91.7876 26.2207 91.2368 26.2324 90.5571 26.2559C89.8774 26.2793 89.0454 26.3145 88.061 26.3613C88.1782 27.2988 88.4712 28.0254 88.9399 28.541C89.4321 29.0332 89.9478 29.4082 90.4868 29.666C91.0962 29.9473 91.7642 30.1113 92.4907 30.1582ZM89.3267 23.8301C90.0767 23.877 90.6978 23.9121 91.1899 23.9355C91.7056 23.959 92.1274 23.9824 92.4556 24.0059C92.8071 24.0293 93.0884 24.041 93.2993 24.041H94.1782C94.7642 24.041 95.854 24.0059 97.4478 23.9355C97.3774 22.9043 97.1548 22.1191 96.7798 21.5801C96.4282 21.041 96.0532 20.6426 95.6548 20.3848C95.186 20.1035 94.6704 19.9395 94.1079 19.8926C92.5845 19.916 91.4478 20.2324 90.6978 20.8418C89.9712 21.4512 89.5142 22.4473 89.3267 23.8301Z"/>
<path d="M104.057 36.8027C104.292 36.4512 104.479 36.123 104.62 35.8184C104.76 35.5137 104.877 35.2559 104.971 35.0449C105.065 34.7871 105.135 34.5527 105.182 34.3418C105.206 34.2012 105.217 33.791 105.217 33.1113C105.217 32.4316 105.194 31.5762 105.147 30.5449C105.124 29.5137 105.088 28.3535 105.042 27.0645C105.018 25.7754 104.971 24.4629 104.901 23.127C104.854 21.791 104.795 20.4902 104.725 19.2246C104.678 17.959 104.631 16.8223 104.584 15.8145C104.538 14.7832 104.491 13.9395 104.444 13.2832C104.397 12.627 104.362 12.252 104.338 12.1582C104.292 12.0176 104.209 11.877 104.092 11.7363C103.858 11.4551 103.459 11.1855 102.897 10.9277C104.092 10.623 105.006 10.377 105.639 10.1895C106.014 10.0957 106.342 10.002 106.624 9.9082C106.881 9.81445 107.139 9.7207 107.397 9.62695C107.608 9.5332 107.842 9.42773 108.1 9.31055C108.358 9.16992 108.592 9.01758 108.803 8.85352C108.686 9.5332 108.592 10.1895 108.522 10.8223C108.452 11.4551 108.393 12.041 108.346 12.5801C108.299 13.1895 108.276 13.7754 108.276 14.3379C108.159 15.4863 108.088 16.7402 108.065 18.0996C108.065 19.4355 108.077 20.7949 108.1 22.1777C108.124 23.5605 108.17 24.9082 108.241 26.2207C108.311 27.5332 108.381 28.7285 108.452 29.8066C108.545 30.8613 108.627 31.7637 108.698 32.5137C108.792 33.2402 108.862 33.709 108.909 33.9199C109.002 34.2715 109.096 34.6113 109.19 34.9395C109.284 35.2207 109.389 35.5137 109.506 35.8184C109.624 36.1465 109.764 36.4043 109.928 36.5918H106.518C106.213 36.5918 105.92 36.6035 105.639 36.627C105.381 36.6504 105.112 36.6738 104.831 36.6973C104.549 36.7207 104.292 36.7559 104.057 36.8027Z"/>
<path d="M110.139 19.4355C110.889 19.3184 111.499 19.2246 111.967 19.1543C112.459 19.0605 112.858 18.9902 113.163 18.9434C113.514 18.873 113.784 18.8145 113.971 18.7676C114.159 18.7207 114.428 18.6504 114.78 18.5566C115.084 18.4629 115.483 18.3574 115.975 18.2402C116.467 18.0996 117.088 17.9121 117.838 17.6777C117.651 17.9121 117.499 18.123 117.381 18.3105C117.288 18.4746 117.194 18.6152 117.1 18.7324C117.006 18.873 116.924 19.002 116.854 19.1191C116.784 19.2363 116.713 19.4121 116.643 19.6465C116.596 19.834 116.538 20.1035 116.467 20.4551C116.397 20.7832 116.338 21.2168 116.292 21.7559C117.557 20.959 118.717 20.3613 119.772 19.9629C120.85 19.5645 121.788 19.2832 122.584 19.1191C123.522 18.9316 124.366 18.8613 125.116 18.9082C126.053 18.9785 126.92 19.1895 127.717 19.541C128.538 19.8691 129.276 20.2676 129.932 20.7363C130.588 21.2051 131.163 21.7207 131.655 22.2832C132.147 22.8457 132.534 23.4082 132.815 23.9707C133.002 24.3457 133.12 24.8848 133.167 25.5879C133.237 26.291 133.167 27.041 132.956 27.8379C132.745 28.6348 132.37 29.4199 131.831 30.1934C131.315 30.9434 130.577 31.541 129.616 31.9863C127.952 32.7363 126.299 33.1582 124.659 33.252C123.956 33.2988 123.229 33.2754 122.479 33.1816C121.752 33.0879 121.014 32.8887 120.264 32.584C119.538 32.2793 118.834 31.8457 118.155 31.2832C117.475 30.6973 116.854 29.9473 116.292 29.0332C116.104 30.2285 115.963 31.2715 115.87 32.1621C115.799 33.0293 115.752 33.7559 115.729 34.3418C115.706 35.0215 115.706 35.5957 115.729 36.0645C115.776 36.5332 115.87 37.0371 116.01 37.5762C116.127 38.0449 116.292 38.584 116.502 39.1934C116.737 39.8262 117.03 40.4824 117.381 41.1621C117.241 41.1152 117.042 41.0801 116.784 41.0566C116.549 41.0566 116.303 41.0801 116.045 41.127C115.764 41.1738 115.448 41.2207 115.096 41.2676C114.768 41.3379 114.405 41.4199 114.006 41.5137C113.678 41.584 113.292 41.666 112.846 41.7598C112.424 41.877 111.991 42.0059 111.545 42.1465C111.803 41.8418 112.002 41.4902 112.143 41.0918C112.307 40.7168 112.436 40.3652 112.53 40.0371C112.624 39.6387 112.706 39.2402 112.776 38.8418C112.799 38.4902 112.834 37.8223 112.881 36.8379C112.952 35.877 113.01 34.7637 113.057 33.498C113.104 32.209 113.139 30.8613 113.163 29.4551C113.209 28.0488 113.233 26.748 113.233 25.5527C113.256 24.334 113.256 23.3027 113.233 22.459C113.209 21.6152 113.163 21.123 113.092 20.9824C112.999 20.8184 112.823 20.6426 112.565 20.4551C112.354 20.291 112.049 20.127 111.651 19.9629C111.276 19.7988 110.772 19.623 110.139 19.4355ZM118.506 25.834C118.342 26.373 118.307 26.9004 118.401 27.416C118.495 27.9316 118.729 28.4121 119.104 28.8574C119.502 29.3027 120.053 29.7012 120.756 30.0527C121.483 30.3809 122.385 30.627 123.463 30.791C124.542 30.9551 125.362 30.9316 125.924 30.7207C126.487 30.5098 126.897 30.1816 127.155 29.7363C127.436 29.2676 127.624 28.7285 127.717 28.1191C127.811 27.4863 127.928 26.8301 128.069 26.1504C128.209 25.4941 128.186 24.8262 127.999 24.1465C127.811 23.4434 127.542 22.8105 127.19 22.248C126.862 21.6855 126.487 21.2285 126.065 20.877C125.667 20.502 125.315 20.3145 125.01 20.3145C124.284 20.3145 123.569 20.502 122.866 20.877C122.163 21.252 121.518 21.7207 120.932 22.2832C120.346 22.8457 119.831 23.4551 119.385 24.1113C118.963 24.7441 118.67 25.3184 118.506 25.834Z"/>
<path d="M132.815 10.6465C133.706 10.8574 134.502 11.0215 135.206 11.1387C135.932 11.2324 136.542 11.3027 137.034 11.3496C137.62 11.4199 138.135 11.4434 138.581 11.4199C139.143 11.3965 139.846 11.3145 140.69 11.1738C141.534 11.0332 142.424 10.8926 143.362 10.752C144.299 10.6113 145.225 10.4941 146.139 10.4004C147.053 10.3066 147.85 10.2949 148.53 10.3652C149.209 10.4355 149.924 10.5996 150.674 10.8574C151.424 11.0918 152.127 11.4199 152.784 11.8418C153.44 12.2402 154.002 12.7324 154.471 13.3184C154.963 13.9043 155.268 14.584 155.385 15.3574C155.502 16.1074 155.432 16.916 155.174 17.7832C154.917 18.627 154.506 19.459 153.944 20.2793C153.381 21.0762 152.678 21.8145 151.834 22.4941C150.991 23.1738 150.053 23.7246 149.022 24.1465C148.202 24.4512 147.311 24.6855 146.35 24.8496C145.53 24.9902 144.569 25.084 143.467 25.1309C142.389 25.1543 141.241 25.0371 140.022 24.7793C139.858 25.459 139.764 26.0918 139.741 26.6777C139.741 27.2402 139.764 27.7441 139.811 28.1895C139.881 28.7051 139.975 29.1738 140.092 29.5957C140.233 30.0176 140.409 30.5098 140.62 31.0723C140.807 31.541 141.018 32.1152 141.252 32.7949C141.51 33.4512 141.815 34.1895 142.167 35.0098C141.745 35.0098 141.334 35.0215 140.936 35.0449C140.538 35.0449 140.174 35.0566 139.846 35.0801C139.471 35.1035 139.12 35.127 138.792 35.1504C138.417 35.1738 137.995 35.2207 137.526 35.291C137.127 35.3379 136.624 35.4082 136.014 35.502C135.428 35.5957 134.76 35.7129 134.01 35.8535C134.502 35.1504 134.889 34.5059 135.17 33.9199C135.475 33.3105 135.698 32.7832 135.838 32.3379C136.002 31.8223 136.108 31.3535 136.155 30.9316C136.178 30.5801 136.178 29.959 136.155 29.0684C136.155 28.1777 136.143 27.1465 136.12 25.9746C136.096 24.8027 136.061 23.5723 136.014 22.2832C135.967 20.9941 135.909 19.7871 135.838 18.6621C135.768 17.5137 135.686 16.5293 135.592 15.709C135.522 14.8887 135.452 14.3496 135.381 14.0918C135.288 13.7871 135.124 13.459 134.889 13.1074C134.702 12.8027 134.432 12.4512 134.081 12.0527C133.752 11.6309 133.331 11.1621 132.815 10.6465ZM140.092 17.5723C140.069 17.8066 140.057 18.0527 140.057 18.3105C140.057 18.8027 140.092 19.4355 140.163 20.209C140.327 20.6074 140.526 20.9355 140.76 21.1934C141.018 21.4512 141.288 21.6504 141.569 21.791C141.874 21.9316 142.178 22.0254 142.483 22.0723C142.788 22.1191 143.092 22.1426 143.397 22.1426C144.1 22.1191 144.838 21.9551 145.612 21.6504C146.643 21.2051 147.37 20.5723 147.792 19.752C148.213 18.9316 148.436 18.0879 148.459 17.2207C148.483 16.3535 148.331 15.5566 148.002 14.8301C147.698 14.1035 147.323 13.6113 146.877 13.3535C146.502 13.1895 146.022 13.1191 145.436 13.1426C144.92 13.166 144.276 13.2949 143.502 13.5293C142.729 13.7637 141.78 14.1855 140.655 14.7949C140.538 15.2168 140.444 15.5918 140.374 15.9199C140.303 16.248 140.245 16.541 140.198 16.7988C140.151 17.0801 140.116 17.3379 140.092 17.5723Z"/>
<path d="M163.647 30.1582C164.303 30.1582 164.913 30.0879 165.475 29.9473C165.944 29.8301 166.389 29.6426 166.811 29.3848C167.256 29.1035 167.549 28.6934 167.69 28.1543C168.159 28.248 168.557 28.3301 168.885 28.4004C169.213 28.4473 169.495 28.4941 169.729 28.541C169.987 28.6113 170.209 28.6582 170.397 28.6816C170.584 28.7285 170.807 28.7754 171.065 28.8223C171.299 28.8691 171.581 28.9277 171.909 28.998C172.26 29.0449 172.67 29.1152 173.139 29.209C172.788 29.1621 172.424 29.1973 172.049 29.3145C171.698 29.4316 171.358 29.5605 171.03 29.7012C170.655 29.8652 170.303 30.0645 169.975 30.2988C169.764 30.4395 169.518 30.6504 169.237 30.9316C168.979 31.2129 168.604 31.4824 168.112 31.7402C167.62 31.998 166.963 32.2207 166.143 32.4082C165.346 32.5723 164.315 32.6309 163.049 32.584C161.526 32.5371 160.249 32.2676 159.217 31.7754C158.186 31.2598 157.354 30.6387 156.721 29.9121C156.088 29.1621 155.631 28.3535 155.35 27.4863C155.069 26.6191 154.917 25.8105 154.893 25.0605C154.87 24.3105 155.092 23.5254 155.561 22.7051C156.03 21.8848 156.686 21.1348 157.53 20.4551C158.397 19.7754 159.44 19.2246 160.659 18.8027C161.877 18.3574 163.213 18.1348 164.667 18.1348C165.51 18.1348 166.284 18.2402 166.987 18.4512C167.713 18.6387 168.37 18.8965 168.956 19.2246C169.565 19.5527 170.092 19.9277 170.538 20.3496C170.983 20.748 171.358 21.1582 171.663 21.5801C171.967 22.0254 172.225 22.4941 172.436 22.9863C172.624 23.4082 172.776 23.8887 172.893 24.4277C173.01 24.9668 173.045 25.5176 172.999 26.0801C171.217 26.127 169.776 26.1621 168.674 26.1855C167.596 26.209 166.752 26.2207 166.143 26.2207H163.366C162.944 26.2207 162.393 26.2324 161.713 26.2559C161.034 26.2793 160.202 26.3145 159.217 26.3613C159.334 27.2988 159.627 28.0254 160.096 28.541C160.588 29.0332 161.104 29.4082 161.643 29.666C162.252 29.9473 162.92 30.1113 163.647 30.1582ZM160.483 23.8301C161.233 23.877 161.854 23.9121 162.346 23.9355C162.862 23.959 163.284 23.9824 163.612 24.0059C163.963 24.0293 164.245 24.041 164.456 24.041H165.334C165.92 24.041 167.01 24.0059 168.604 23.9355C168.534 22.9043 168.311 22.1191 167.936 21.5801C167.584 21.041 167.209 20.6426 166.811 20.3848C166.342 20.1035 165.827 19.9395 165.264 19.8926C163.741 19.916 162.604 20.2324 161.854 20.8418C161.127 21.4512 160.67 22.4473 160.483 23.8301Z"/>
<path d="M173.983 13.6699C174.686 13.7402 175.272 13.7988 175.741 13.8457C176.233 13.8926 176.631 13.9277 176.936 13.9512C177.288 13.9746 177.569 13.9863 177.78 13.9863C177.991 14.0098 178.272 14.0098 178.624 13.9863C178.928 13.9629 179.327 13.9395 179.819 13.916C180.311 13.8691 180.932 13.7988 181.682 13.7051C181.518 13.9395 181.389 14.1504 181.295 14.3379C181.202 14.502 181.12 14.6543 181.049 14.7949L180.838 15.2168C180.792 15.3574 180.745 15.498 180.698 15.6387C180.651 15.7559 180.604 15.8965 180.557 16.0605C180.534 16.2246 180.51 16.4004 180.487 16.5879H185.901L185.409 19.4355L180.452 19.1543C180.334 20.3496 180.252 21.2754 180.206 21.9316C180.159 22.5879 180.112 23.0684 180.065 23.373L179.995 24.0059C179.924 24.8965 179.854 25.8691 179.784 26.9238C179.713 27.9551 179.69 28.916 179.713 29.8066C179.737 30.6973 179.819 31.4473 179.959 32.0566C180.1 32.6426 180.346 32.9355 180.698 32.9355C181.049 32.9355 181.377 32.8418 181.682 32.6543C181.987 32.4668 182.245 32.2441 182.456 31.9863C182.69 31.7285 182.866 31.4707 182.983 31.2129C183.1 30.9316 183.159 30.7207 183.159 30.5801C183.159 30.4395 183.124 30.2754 183.053 30.0879C182.936 29.7363 182.725 29.291 182.42 28.752C183.1 28.916 183.698 29.0801 184.213 29.2441C184.471 29.3379 184.706 29.4316 184.917 29.5254C185.151 29.6191 185.42 29.7246 185.725 29.8418C185.983 29.959 186.311 30.0996 186.709 30.2637C187.108 30.4277 187.577 30.627 188.116 30.8613C187.6 30.9551 187.225 31.1074 186.991 31.3184C186.85 31.4121 186.745 31.5176 186.674 31.6348C186.51 31.8926 186.323 32.2441 186.112 32.6895C185.901 33.1113 185.584 33.5332 185.163 33.9551C184.741 34.377 184.167 34.752 183.44 35.0801C182.737 35.4082 181.788 35.5957 180.592 35.6426C179.35 35.6895 178.401 35.4785 177.745 35.0098C177.112 34.541 176.643 34.002 176.338 33.3926C176.057 32.7598 175.893 32.1387 175.846 31.5293C175.799 30.9199 175.764 30.5098 175.741 30.2988C175.717 30.0879 175.717 29.5605 175.741 28.7168C175.764 27.873 175.799 26.9473 175.846 25.9395C175.893 24.9082 175.94 23.9238 175.987 22.9863C176.034 22.0254 176.057 21.3223 176.057 20.877C176.057 20.6426 176.069 20.3965 176.092 20.1387C176.092 19.9277 176.092 19.7051 176.092 19.4707C176.116 19.2129 176.127 18.9668 176.127 18.7324L171.03 18.6973L170.819 16.6934L175.952 16.834C175.905 16.5762 175.846 16.3418 175.776 16.1309C175.729 15.8965 175.682 15.709 175.635 15.5684C175.565 15.4043 175.495 15.2637 175.424 15.1465C175.331 15.0293 175.225 14.9004 175.108 14.7598C174.991 14.6426 174.838 14.4902 174.651 14.3027C174.463 14.1152 174.241 13.9043 173.983 13.6699Z"/>
</mask>
<path d="M60.4985 10.8574C61.3188 10.9512 62.0103 11.0215 62.5728 11.0684C63.1353 11.0918 63.5806 11.1152 63.9087 11.1387C64.3071 11.1621 64.6235 11.1738 64.8579 11.1738C65.2563 11.1738 65.7134 11.1621 66.229 11.1387C66.6743 11.1152 67.1899 11.0801 67.7759 11.0332C68.3853 10.9629 69.0415 10.8574 69.7446 10.7168C69.4165 11.0684 69.147 11.4082 68.936 11.7363C68.7251 12.041 68.561 12.3223 68.4438 12.5801C68.3032 12.8613 68.186 13.1191 68.0923 13.3535C67.9985 13.6582 67.8931 14.127 67.7759 14.7598C67.6587 15.2988 67.5298 16.0605 67.3892 17.0449C67.272 18.0293 67.1196 19.3184 66.9321 20.9121C67.729 20.9355 68.4204 20.9473 69.0063 20.9473C69.5923 20.9238 70.0845 20.9121 70.4829 20.9121H71.6431C71.9712 20.8887 72.3462 20.8652 72.7681 20.8418C73.4712 20.8184 74.5376 20.748 75.9673 20.6309C76.0845 19.5527 76.1431 18.627 76.1431 17.8535C76.1665 17.0566 76.1548 16.3887 76.1079 15.8496C76.061 15.2402 75.9907 14.7246 75.897 14.3027C75.8267 14.0684 75.7212 13.7871 75.5806 13.459C75.4634 13.1777 75.2993 12.8379 75.0884 12.4395C74.9009 12.0176 74.6431 11.5137 74.3149 10.9277C74.9243 11.0215 75.4634 11.0918 75.9321 11.1387C76.4243 11.1621 76.8345 11.1855 77.1626 11.209C77.5376 11.2324 77.854 11.2441 78.1118 11.2441C78.3696 11.2441 78.7095 11.2324 79.1313 11.209C79.4829 11.1855 79.9165 11.1738 80.4321 11.1738C80.9478 11.1504 81.5806 11.1152 82.3306 11.0684C82.1431 11.3965 81.979 11.7363 81.8384 12.0879C81.6978 12.4395 81.5806 12.7559 81.4868 13.0371C81.3931 13.3652 81.2993 13.6934 81.2056 14.0215C81.0884 14.5137 80.9829 15.2285 80.8892 16.166C80.8188 17.1035 80.7485 18.1465 80.6782 19.2949C80.6313 20.4434 80.5845 21.6387 80.5376 22.8809C80.5142 24.123 80.4907 25.2949 80.4673 26.3965C80.4673 27.498 80.479 28.4824 80.5024 29.3496C80.5259 30.1934 80.5728 30.791 80.6431 31.1426C80.7134 31.5645 80.8306 31.998 80.9946 32.4434C81.1353 32.8418 81.3228 33.2754 81.5571 33.7441C81.7915 34.1895 82.0962 34.6113 82.4712 35.0098L73.9985 35.6426C74.3501 35.3145 74.6313 34.998 74.8423 34.6934C75.0532 34.3652 75.2173 34.084 75.3345 33.8496C75.4517 33.5918 75.5337 33.3457 75.5806 33.1113C75.604 32.8301 75.6392 32.3379 75.686 31.6348C75.7329 31.0488 75.7798 30.2168 75.8267 29.1387C75.8735 28.0605 75.9204 26.6309 75.9673 24.8496C75.6392 24.8496 75.2407 24.8613 74.772 24.8848C74.3267 24.8848 73.9048 24.8965 73.5063 24.9199C73.0376 24.9434 72.5454 24.9551 72.0298 24.9551C71.5142 24.9785 70.9751 25.002 70.4126 25.0254C69.9438 25.0723 69.4165 25.1191 68.8306 25.166C68.2681 25.1895 67.7056 25.2246 67.1431 25.2715C67.0962 26.2559 67.0962 27.123 67.1431 27.873C67.1899 28.5996 67.2603 29.2207 67.354 29.7363C67.4478 30.3457 67.5649 30.873 67.7056 31.3184C67.8462 31.7402 67.9985 32.1621 68.1626 32.584C68.3032 32.959 68.4673 33.3574 68.6548 33.7793C68.8657 34.2012 69.0767 34.5762 69.2876 34.9043C68.8423 34.8574 68.4321 34.8223 68.0571 34.7988C67.6821 34.752 67.354 34.7051 67.0728 34.6582C66.7446 34.6348 66.4282 34.6113 66.1235 34.5879C65.8188 34.5879 65.4556 34.5762 65.0337 34.5527C64.6587 34.5293 64.1899 34.5176 63.6274 34.5176C63.0649 34.4941 62.4087 34.4824 61.6587 34.4824C62.104 34.0371 62.4556 33.6035 62.7134 33.1816C62.9946 32.7363 63.1938 32.3379 63.311 31.9863C63.4517 31.5645 63.5454 31.1777 63.5923 30.8262C63.6157 30.5215 63.6274 29.9473 63.6274 29.1035C63.6509 28.2598 63.6509 27.2988 63.6274 26.2207C63.6274 25.1191 63.6157 23.9707 63.5923 22.7754C63.5688 21.5566 63.5337 20.4199 63.4868 19.3652C63.4634 18.3105 63.4282 17.4082 63.3813 16.6582C63.3579 15.8848 63.3345 15.4043 63.311 15.2168C63.1938 14.7949 63.0181 14.3379 62.7837 13.8457C62.5728 13.4473 62.2915 12.9902 61.9399 12.4746C61.5884 11.9355 61.1079 11.3965 60.4985 10.8574Z" fill="#39C442"/>
<path d="M92.4907 30.1582C93.147 30.1582 93.7563 30.0879 94.3188 29.9473C94.7876 29.8301 95.2329 29.6426 95.6548 29.3848C96.1001 29.1035 96.3931 28.6934 96.5337 28.1543C97.0024 28.248 97.4009 28.3301 97.729 28.4004C98.0571 28.4473 98.3384 28.4941 98.5728 28.541C98.8306 28.6113 99.0532 28.6582 99.2407 28.6816C99.4282 28.7285 99.6509 28.7754 99.9087 28.8223C100.143 28.8691 100.424 28.9277 100.752 28.998C101.104 29.0449 101.514 29.1152 101.983 29.209C101.631 29.1621 101.268 29.1973 100.893 29.3145C100.542 29.4316 100.202 29.5605 99.8735 29.7012C99.4985 29.8652 99.147 30.0645 98.8188 30.2988C98.6079 30.4395 98.3618 30.6504 98.0806 30.9316C97.8228 31.2129 97.4478 31.4824 96.9556 31.7402C96.4634 31.998 95.8071 32.2207 94.9868 32.4082C94.1899 32.5723 93.1587 32.6309 91.8931 32.584C90.3696 32.5371 89.0923 32.2676 88.061 31.7754C87.0298 31.2598 86.1978 30.6387 85.5649 29.9121C84.9321 29.1621 84.4751 28.3535 84.1938 27.4863C83.9126 26.6191 83.7603 25.8105 83.7368 25.0605C83.7134 24.3105 83.936 23.5254 84.4048 22.7051C84.8735 21.8848 85.5298 21.1348 86.3735 20.4551C87.2407 19.7754 88.2837 19.2246 89.5024 18.8027C90.7212 18.3574 92.0571 18.1348 93.5103 18.1348C94.354 18.1348 95.1274 18.2402 95.8306 18.4512C96.5571 18.6387 97.2134 18.8965 97.7993 19.2246C98.4087 19.5527 98.936 19.9277 99.3813 20.3496C99.8267 20.748 100.202 21.1582 100.506 21.5801C100.811 22.0254 101.069 22.4941 101.28 22.9863C101.467 23.4082 101.62 23.8887 101.737 24.4277C101.854 24.9668 101.889 25.5176 101.842 26.0801C100.061 26.127 98.6196 26.1621 97.5181 26.1855C96.4399 26.209 95.5962 26.2207 94.9868 26.2207H92.2095C91.7876 26.2207 91.2368 26.2324 90.5571 26.2559C89.8774 26.2793 89.0454 26.3145 88.061 26.3613C88.1782 27.2988 88.4712 28.0254 88.9399 28.541C89.4321 29.0332 89.9478 29.4082 90.4868 29.666C91.0962 29.9473 91.7642 30.1113 92.4907 30.1582ZM89.3267 23.8301C90.0767 23.877 90.6978 23.9121 91.1899 23.9355C91.7056 23.959 92.1274 23.9824 92.4556 24.0059C92.8071 24.0293 93.0884 24.041 93.2993 24.041H94.1782C94.7642 24.041 95.854 24.0059 97.4478 23.9355C97.3774 22.9043 97.1548 22.1191 96.7798 21.5801C96.4282 21.041 96.0532 20.6426 95.6548 20.3848C95.186 20.1035 94.6704 19.9395 94.1079 19.8926C92.5845 19.916 91.4478 20.2324 90.6978 20.8418C89.9712 21.4512 89.5142 22.4473 89.3267 23.8301Z" fill="#39C442"/>
<path d="M104.057 36.8027C104.292 36.4512 104.479 36.123 104.62 35.8184C104.76 35.5137 104.877 35.2559 104.971 35.0449C105.065 34.7871 105.135 34.5527 105.182 34.3418C105.206 34.2012 105.217 33.791 105.217 33.1113C105.217 32.4316 105.194 31.5762 105.147 30.5449C105.124 29.5137 105.088 28.3535 105.042 27.0645C105.018 25.7754 104.971 24.4629 104.901 23.127C104.854 21.791 104.795 20.4902 104.725 19.2246C104.678 17.959 104.631 16.8223 104.584 15.8145C104.538 14.7832 104.491 13.9395 104.444 13.2832C104.397 12.627 104.362 12.252 104.338 12.1582C104.292 12.0176 104.209 11.877 104.092 11.7363C103.858 11.4551 103.459 11.1855 102.897 10.9277C104.092 10.623 105.006 10.377 105.639 10.1895C106.014 10.0957 106.342 10.002 106.624 9.9082C106.881 9.81445 107.139 9.7207 107.397 9.62695C107.608 9.5332 107.842 9.42773 108.1 9.31055C108.358 9.16992 108.592 9.01758 108.803 8.85352C108.686 9.5332 108.592 10.1895 108.522 10.8223C108.452 11.4551 108.393 12.041 108.346 12.5801C108.299 13.1895 108.276 13.7754 108.276 14.3379C108.159 15.4863 108.088 16.7402 108.065 18.0996C108.065 19.4355 108.077 20.7949 108.1 22.1777C108.124 23.5605 108.17 24.9082 108.241 26.2207C108.311 27.5332 108.381 28.7285 108.452 29.8066C108.545 30.8613 108.627 31.7637 108.698 32.5137C108.792 33.2402 108.862 33.709 108.909 33.9199C109.002 34.2715 109.096 34.6113 109.19 34.9395C109.284 35.2207 109.389 35.5137 109.506 35.8184C109.624 36.1465 109.764 36.4043 109.928 36.5918H106.518C106.213 36.5918 105.92 36.6035 105.639 36.627C105.381 36.6504 105.112 36.6738 104.831 36.6973C104.549 36.7207 104.292 36.7559 104.057 36.8027Z" fill="#39C442"/>
<path d="M110.139 19.4355C110.889 19.3184 111.499 19.2246 111.967 19.1543C112.459 19.0605 112.858 18.9902 113.163 18.9434C113.514 18.873 113.784 18.8145 113.971 18.7676C114.159 18.7207 114.428 18.6504 114.78 18.5566C115.084 18.4629 115.483 18.3574 115.975 18.2402C116.467 18.0996 117.088 17.9121 117.838 17.6777C117.651 17.9121 117.499 18.123 117.381 18.3105C117.288 18.4746 117.194 18.6152 117.1 18.7324C117.006 18.873 116.924 19.002 116.854 19.1191C116.784 19.2363 116.713 19.4121 116.643 19.6465C116.596 19.834 116.538 20.1035 116.467 20.4551C116.397 20.7832 116.338 21.2168 116.292 21.7559C117.557 20.959 118.717 20.3613 119.772 19.9629C120.85 19.5645 121.788 19.2832 122.584 19.1191C123.522 18.9316 124.366 18.8613 125.116 18.9082C126.053 18.9785 126.92 19.1895 127.717 19.541C128.538 19.8691 129.276 20.2676 129.932 20.7363C130.588 21.2051 131.163 21.7207 131.655 22.2832C132.147 22.8457 132.534 23.4082 132.815 23.9707C133.002 24.3457 133.12 24.8848 133.167 25.5879C133.237 26.291 133.167 27.041 132.956 27.8379C132.745 28.6348 132.37 29.4199 131.831 30.1934C131.315 30.9434 130.577 31.541 129.616 31.9863C127.952 32.7363 126.299 33.1582 124.659 33.252C123.956 33.2988 123.229 33.2754 122.479 33.1816C121.752 33.0879 121.014 32.8887 120.264 32.584C119.538 32.2793 118.834 31.8457 118.155 31.2832C117.475 30.6973 116.854 29.9473 116.292 29.0332C116.104 30.2285 115.963 31.2715 115.87 32.1621C115.799 33.0293 115.752 33.7559 115.729 34.3418C115.706 35.0215 115.706 35.5957 115.729 36.0645C115.776 36.5332 115.87 37.0371 116.01 37.5762C116.127 38.0449 116.292 38.584 116.502 39.1934C116.737 39.8262 117.03 40.4824 117.381 41.1621C117.241 41.1152 117.042 41.0801 116.784 41.0566C116.549 41.0566 116.303 41.0801 116.045 41.127C115.764 41.1738 115.448 41.2207 115.096 41.2676C114.768 41.3379 114.405 41.4199 114.006 41.5137C113.678 41.584 113.292 41.666 112.846 41.7598C112.424 41.877 111.991 42.0059 111.545 42.1465C111.803 41.8418 112.002 41.4902 112.143 41.0918C112.307 40.7168 112.436 40.3652 112.53 40.0371C112.624 39.6387 112.706 39.2402 112.776 38.8418C112.799 38.4902 112.834 37.8223 112.881 36.8379C112.952 35.877 113.01 34.7637 113.057 33.498C113.104 32.209 113.139 30.8613 113.163 29.4551C113.209 28.0488 113.233 26.748 113.233 25.5527C113.256 24.334 113.256 23.3027 113.233 22.459C113.209 21.6152 113.163 21.123 113.092 20.9824C112.999 20.8184 112.823 20.6426 112.565 20.4551C112.354 20.291 112.049 20.127 111.651 19.9629C111.276 19.7988 110.772 19.623 110.139 19.4355ZM118.506 25.834C118.342 26.373 118.307 26.9004 118.401 27.416C118.495 27.9316 118.729 28.4121 119.104 28.8574C119.502 29.3027 120.053 29.7012 120.756 30.0527C121.483 30.3809 122.385 30.627 123.463 30.791C124.542 30.9551 125.362 30.9316 125.924 30.7207C126.487 30.5098 126.897 30.1816 127.155 29.7363C127.436 29.2676 127.624 28.7285 127.717 28.1191C127.811 27.4863 127.928 26.8301 128.069 26.1504C128.209 25.4941 128.186 24.8262 127.999 24.1465C127.811 23.4434 127.542 22.8105 127.19 22.248C126.862 21.6855 126.487 21.2285 126.065 20.877C125.667 20.502 125.315 20.3145 125.01 20.3145C124.284 20.3145 123.569 20.502 122.866 20.877C122.163 21.252 121.518 21.7207 120.932 22.2832C120.346 22.8457 119.831 23.4551 119.385 24.1113C118.963 24.7441 118.67 25.3184 118.506 25.834Z" fill="#39C442"/>
<path d="M132.815 10.6465C133.706 10.8574 134.502 11.0215 135.206 11.1387C135.932 11.2324 136.542 11.3027 137.034 11.3496C137.62 11.4199 138.135 11.4434 138.581 11.4199C139.143 11.3965 139.846 11.3145 140.69 11.1738C141.534 11.0332 142.424 10.8926 143.362 10.752C144.299 10.6113 145.225 10.4941 146.139 10.4004C147.053 10.3066 147.85 10.2949 148.53 10.3652C149.209 10.4355 149.924 10.5996 150.674 10.8574C151.424 11.0918 152.127 11.4199 152.784 11.8418C153.44 12.2402 154.002 12.7324 154.471 13.3184C154.963 13.9043 155.268 14.584 155.385 15.3574C155.502 16.1074 155.432 16.916 155.174 17.7832C154.917 18.627 154.506 19.459 153.944 20.2793C153.381 21.0762 152.678 21.8145 151.834 22.4941C150.991 23.1738 150.053 23.7246 149.022 24.1465C148.202 24.4512 147.311 24.6855 146.35 24.8496C145.53 24.9902 144.569 25.084 143.467 25.1309C142.389 25.1543 141.241 25.0371 140.022 24.7793C139.858 25.459 139.764 26.0918 139.741 26.6777C139.741 27.2402 139.764 27.7441 139.811 28.1895C139.881 28.7051 139.975 29.1738 140.092 29.5957C140.233 30.0176 140.409 30.5098 140.62 31.0723C140.807 31.541 141.018 32.1152 141.252 32.7949C141.51 33.4512 141.815 34.1895 142.167 35.0098C141.745 35.0098 141.334 35.0215 140.936 35.0449C140.538 35.0449 140.174 35.0566 139.846 35.0801C139.471 35.1035 139.12 35.127 138.792 35.1504C138.417 35.1738 137.995 35.2207 137.526 35.291C137.127 35.3379 136.624 35.4082 136.014 35.502C135.428 35.5957 134.76 35.7129 134.01 35.8535C134.502 35.1504 134.889 34.5059 135.17 33.9199C135.475 33.3105 135.698 32.7832 135.838 32.3379C136.002 31.8223 136.108 31.3535 136.155 30.9316C136.178 30.5801 136.178 29.959 136.155 29.0684C136.155 28.1777 136.143 27.1465 136.12 25.9746C136.096 24.8027 136.061 23.5723 136.014 22.2832C135.967 20.9941 135.909 19.7871 135.838 18.6621C135.768 17.5137 135.686 16.5293 135.592 15.709C135.522 14.8887 135.452 14.3496 135.381 14.0918C135.288 13.7871 135.124 13.459 134.889 13.1074C134.702 12.8027 134.432 12.4512 134.081 12.0527C133.752 11.6309 133.331 11.1621 132.815 10.6465ZM140.092 17.5723C140.069 17.8066 140.057 18.0527 140.057 18.3105C140.057 18.8027 140.092 19.4355 140.163 20.209C140.327 20.6074 140.526 20.9355 140.76 21.1934C141.018 21.4512 141.288 21.6504 141.569 21.791C141.874 21.9316 142.178 22.0254 142.483 22.0723C142.788 22.1191 143.092 22.1426 143.397 22.1426C144.1 22.1191 144.838 21.9551 145.612 21.6504C146.643 21.2051 147.37 20.5723 147.792 19.752C148.213 18.9316 148.436 18.0879 148.459 17.2207C148.483 16.3535 148.331 15.5566 148.002 14.8301C147.698 14.1035 147.323 13.6113 146.877 13.3535C146.502 13.1895 146.022 13.1191 145.436 13.1426C144.92 13.166 144.276 13.2949 143.502 13.5293C142.729 13.7637 141.78 14.1855 140.655 14.7949C140.538 15.2168 140.444 15.5918 140.374 15.9199C140.303 16.248 140.245 16.541 140.198 16.7988C140.151 17.0801 140.116 17.3379 140.092 17.5723Z" fill="#39C442"/>
<path d="M163.647 30.1582C164.303 30.1582 164.913 30.0879 165.475 29.9473C165.944 29.8301 166.389 29.6426 166.811 29.3848C167.256 29.1035 167.549 28.6934 167.69 28.1543C168.159 28.248 168.557 28.3301 168.885 28.4004C169.213 28.4473 169.495 28.4941 169.729 28.541C169.987 28.6113 170.209 28.6582 170.397 28.6816C170.584 28.7285 170.807 28.7754 171.065 28.8223C171.299 28.8691 171.581 28.9277 171.909 28.998C172.26 29.0449 172.67 29.1152 173.139 29.209C172.788 29.1621 172.424 29.1973 172.049 29.3145C171.698 29.4316 171.358 29.5605 171.03 29.7012C170.655 29.8652 170.303 30.0645 169.975 30.2988C169.764 30.4395 169.518 30.6504 169.237 30.9316C168.979 31.2129 168.604 31.4824 168.112 31.7402C167.62 31.998 166.963 32.2207 166.143 32.4082C165.346 32.5723 164.315 32.6309 163.049 32.584C161.526 32.5371 160.249 32.2676 159.217 31.7754C158.186 31.2598 157.354 30.6387 156.721 29.9121C156.088 29.1621 155.631 28.3535 155.35 27.4863C155.069 26.6191 154.917 25.8105 154.893 25.0605C154.87 24.3105 155.092 23.5254 155.561 22.7051C156.03 21.8848 156.686 21.1348 157.53 20.4551C158.397 19.7754 159.44 19.2246 160.659 18.8027C161.877 18.3574 163.213 18.1348 164.667 18.1348C165.51 18.1348 166.284 18.2402 166.987 18.4512C167.713 18.6387 168.37 18.8965 168.956 19.2246C169.565 19.5527 170.092 19.9277 170.538 20.3496C170.983 20.748 171.358 21.1582 171.663 21.5801C171.967 22.0254 172.225 22.4941 172.436 22.9863C172.624 23.4082 172.776 23.8887 172.893 24.4277C173.01 24.9668 173.045 25.5176 172.999 26.0801C171.217 26.127 169.776 26.1621 168.674 26.1855C167.596 26.209 166.752 26.2207 166.143 26.2207H163.366C162.944 26.2207 162.393 26.2324 161.713 26.2559C161.034 26.2793 160.202 26.3145 159.217 26.3613C159.334 27.2988 159.627 28.0254 160.096 28.541C160.588 29.0332 161.104 29.4082 161.643 29.666C162.252 29.9473 162.92 30.1113 163.647 30.1582ZM160.483 23.8301C161.233 23.877 161.854 23.9121 162.346 23.9355C162.862 23.959 163.284 23.9824 163.612 24.0059C163.963 24.0293 164.245 24.041 164.456 24.041H165.334C165.92 24.041 167.01 24.0059 168.604 23.9355C168.534 22.9043 168.311 22.1191 167.936 21.5801C167.584 21.041 167.209 20.6426 166.811 20.3848C166.342 20.1035 165.827 19.9395 165.264 19.8926C163.741 19.916 162.604 20.2324 161.854 20.8418C161.127 21.4512 160.67 22.4473 160.483 23.8301Z" fill="#39C442"/>
<path d="M173.983 13.6699C174.686 13.7402 175.272 13.7988 175.741 13.8457C176.233 13.8926 176.631 13.9277 176.936 13.9512C177.288 13.9746 177.569 13.9863 177.78 13.9863C177.991 14.0098 178.272 14.0098 178.624 13.9863C178.928 13.9629 179.327 13.9395 179.819 13.916C180.311 13.8691 180.932 13.7988 181.682 13.7051C181.518 13.9395 181.389 14.1504 181.295 14.3379C181.202 14.502 181.12 14.6543 181.049 14.7949L180.838 15.2168C180.792 15.3574 180.745 15.498 180.698 15.6387C180.651 15.7559 180.604 15.8965 180.557 16.0605C180.534 16.2246 180.51 16.4004 180.487 16.5879H185.901L185.409 19.4355L180.452 19.1543C180.334 20.3496 180.252 21.2754 180.206 21.9316C180.159 22.5879 180.112 23.0684 180.065 23.373L179.995 24.0059C179.924 24.8965 179.854 25.8691 179.784 26.9238C179.713 27.9551 179.69 28.916 179.713 29.8066C179.737 30.6973 179.819 31.4473 179.959 32.0566C180.1 32.6426 180.346 32.9355 180.698 32.9355C181.049 32.9355 181.377 32.8418 181.682 32.6543C181.987 32.4668 182.245 32.2441 182.456 31.9863C182.69 31.7285 182.866 31.4707 182.983 31.2129C183.1 30.9316 183.159 30.7207 183.159 30.5801C183.159 30.4395 183.124 30.2754 183.053 30.0879C182.936 29.7363 182.725 29.291 182.42 28.752C183.1 28.916 183.698 29.0801 184.213 29.2441C184.471 29.3379 184.706 29.4316 184.917 29.5254C185.151 29.6191 185.42 29.7246 185.725 29.8418C185.983 29.959 186.311 30.0996 186.709 30.2637C187.108 30.4277 187.577 30.627 188.116 30.8613C187.6 30.9551 187.225 31.1074 186.991 31.3184C186.85 31.4121 186.745 31.5176 186.674 31.6348C186.51 31.8926 186.323 32.2441 186.112 32.6895C185.901 33.1113 185.584 33.5332 185.163 33.9551C184.741 34.377 184.167 34.752 183.44 35.0801C182.737 35.4082 181.788 35.5957 180.592 35.6426C179.35 35.6895 178.401 35.4785 177.745 35.0098C177.112 34.541 176.643 34.002 176.338 33.3926C176.057 32.7598 175.893 32.1387 175.846 31.5293C175.799 30.9199 175.764 30.5098 175.741 30.2988C175.717 30.0879 175.717 29.5605 175.741 28.7168C175.764 27.873 175.799 26.9473 175.846 25.9395C175.893 24.9082 175.94 23.9238 175.987 22.9863C176.034 22.0254 176.057 21.3223 176.057 20.877C176.057 20.6426 176.069 20.3965 176.092 20.1387C176.092 19.9277 176.092 19.7051 176.092 19.4707C176.116 19.2129 176.127 18.9668 176.127 18.7324L171.03 18.6973L170.819 16.6934L175.952 16.834C175.905 16.5762 175.846 16.3418 175.776 16.1309C175.729 15.8965 175.682 15.709 175.635 15.5684C175.565 15.4043 175.495 15.2637 175.424 15.1465C175.331 15.0293 175.225 14.9004 175.108 14.7598C174.991 14.6426 174.838 14.4902 174.651 14.3027C174.463 14.1152 174.241 13.9043 173.983 13.6699Z" fill="#39C442"/>
<path d="M60.4985 10.8574C61.3188 10.9512 62.0103 11.0215 62.5728 11.0684C63.1353 11.0918 63.5806 11.1152 63.9087 11.1387C64.3071 11.1621 64.6235 11.1738 64.8579 11.1738C65.2563 11.1738 65.7134 11.1621 66.229 11.1387C66.6743 11.1152 67.1899 11.0801 67.7759 11.0332C68.3853 10.9629 69.0415 10.8574 69.7446 10.7168C69.4165 11.0684 69.147 11.4082 68.936 11.7363C68.7251 12.041 68.561 12.3223 68.4438 12.5801C68.3032 12.8613 68.186 13.1191 68.0923 13.3535C67.9985 13.6582 67.8931 14.127 67.7759 14.7598C67.6587 15.2988 67.5298 16.0605 67.3892 17.0449C67.272 18.0293 67.1196 19.3184 66.9321 20.9121C67.729 20.9355 68.4204 20.9473 69.0063 20.9473C69.5923 20.9238 70.0845 20.9121 70.4829 20.9121H71.6431C71.9712 20.8887 72.3462 20.8652 72.7681 20.8418C73.4712 20.8184 74.5376 20.748 75.9673 20.6309C76.0845 19.5527 76.1431 18.627 76.1431 17.8535C76.1665 17.0566 76.1548 16.3887 76.1079 15.8496C76.061 15.2402 75.9907 14.7246 75.897 14.3027C75.8267 14.0684 75.7212 13.7871 75.5806 13.459C75.4634 13.1777 75.2993 12.8379 75.0884 12.4395C74.9009 12.0176 74.6431 11.5137 74.3149 10.9277C74.9243 11.0215 75.4634 11.0918 75.9321 11.1387C76.4243 11.1621 76.8345 11.1855 77.1626 11.209C77.5376 11.2324 77.854 11.2441 78.1118 11.2441C78.3696 11.2441 78.7095 11.2324 79.1313 11.209C79.4829 11.1855 79.9165 11.1738 80.4321 11.1738C80.9478 11.1504 81.5806 11.1152 82.3306 11.0684C82.1431 11.3965 81.979 11.7363 81.8384 12.0879C81.6978 12.4395 81.5806 12.7559 81.4868 13.0371C81.3931 13.3652 81.2993 13.6934 81.2056 14.0215C81.0884 14.5137 80.9829 15.2285 80.8892 16.166C80.8188 17.1035 80.7485 18.1465 80.6782 19.2949C80.6313 20.4434 80.5845 21.6387 80.5376 22.8809C80.5142 24.123 80.4907 25.2949 80.4673 26.3965C80.4673 27.498 80.479 28.4824 80.5024 29.3496C80.5259 30.1934 80.5728 30.791 80.6431 31.1426C80.7134 31.5645 80.8306 31.998 80.9946 32.4434C81.1353 32.8418 81.3228 33.2754 81.5571 33.7441C81.7915 34.1895 82.0962 34.6113 82.4712 35.0098L73.9985 35.6426C74.3501 35.3145 74.6313 34.998 74.8423 34.6934C75.0532 34.3652 75.2173 34.084 75.3345 33.8496C75.4517 33.5918 75.5337 33.3457 75.5806 33.1113C75.604 32.8301 75.6392 32.3379 75.686 31.6348C75.7329 31.0488 75.7798 30.2168 75.8267 29.1387C75.8735 28.0605 75.9204 26.6309 75.9673 24.8496C75.6392 24.8496 75.2407 24.8613 74.772 24.8848C74.3267 24.8848 73.9048 24.8965 73.5063 24.9199C73.0376 24.9434 72.5454 24.9551 72.0298 24.9551C71.5142 24.9785 70.9751 25.002 70.4126 25.0254C69.9438 25.0723 69.4165 25.1191 68.8306 25.166C68.2681 25.1895 67.7056 25.2246 67.1431 25.2715C67.0962 26.2559 67.0962 27.123 67.1431 27.873C67.1899 28.5996 67.2603 29.2207 67.354 29.7363C67.4478 30.3457 67.5649 30.873 67.7056 31.3184C67.8462 31.7402 67.9985 32.1621 68.1626 32.584C68.3032 32.959 68.4673 33.3574 68.6548 33.7793C68.8657 34.2012 69.0767 34.5762 69.2876 34.9043C68.8423 34.8574 68.4321 34.8223 68.0571 34.7988C67.6821 34.752 67.354 34.7051 67.0728 34.6582C66.7446 34.6348 66.4282 34.6113 66.1235 34.5879C65.8188 34.5879 65.4556 34.5762 65.0337 34.5527C64.6587 34.5293 64.1899 34.5176 63.6274 34.5176C63.0649 34.4941 62.4087 34.4824 61.6587 34.4824C62.104 34.0371 62.4556 33.6035 62.7134 33.1816C62.9946 32.7363 63.1938 32.3379 63.311 31.9863C63.4517 31.5645 63.5454 31.1777 63.5923 30.8262C63.6157 30.5215 63.6274 29.9473 63.6274 29.1035C63.6509 28.2598 63.6509 27.2988 63.6274 26.2207C63.6274 25.1191 63.6157 23.9707 63.5923 22.7754C63.5688 21.5566 63.5337 20.4199 63.4868 19.3652C63.4634 18.3105 63.4282 17.4082 63.3813 16.6582C63.3579 15.8848 63.3345 15.4043 63.311 15.2168C63.1938 14.7949 63.0181 14.3379 62.7837 13.8457C62.5728 13.4473 62.2915 12.9902 61.9399 12.4746C61.5884 11.9355 61.1079 11.3965 60.4985 10.8574Z" stroke="#001A00" stroke-width="2.8" mask="url(#path-3-outside-1_278_2068)"/>
<path d="M92.4907 30.1582C93.147 30.1582 93.7563 30.0879 94.3188 29.9473C94.7876 29.8301 95.2329 29.6426 95.6548 29.3848C96.1001 29.1035 96.3931 28.6934 96.5337 28.1543C97.0024 28.248 97.4009 28.3301 97.729 28.4004C98.0571 28.4473 98.3384 28.4941 98.5728 28.541C98.8306 28.6113 99.0532 28.6582 99.2407 28.6816C99.4282 28.7285 99.6509 28.7754 99.9087 28.8223C100.143 28.8691 100.424 28.9277 100.752 28.998C101.104 29.0449 101.514 29.1152 101.983 29.209C101.631 29.1621 101.268 29.1973 100.893 29.3145C100.542 29.4316 100.202 29.5605 99.8735 29.7012C99.4985 29.8652 99.147 30.0645 98.8188 30.2988C98.6079 30.4395 98.3618 30.6504 98.0806 30.9316C97.8228 31.2129 97.4478 31.4824 96.9556 31.7402C96.4634 31.998 95.8071 32.2207 94.9868 32.4082C94.1899 32.5723 93.1587 32.6309 91.8931 32.584C90.3696 32.5371 89.0923 32.2676 88.061 31.7754C87.0298 31.2598 86.1978 30.6387 85.5649 29.9121C84.9321 29.1621 84.4751 28.3535 84.1938 27.4863C83.9126 26.6191 83.7603 25.8105 83.7368 25.0605C83.7134 24.3105 83.936 23.5254 84.4048 22.7051C84.8735 21.8848 85.5298 21.1348 86.3735 20.4551C87.2407 19.7754 88.2837 19.2246 89.5024 18.8027C90.7212 18.3574 92.0571 18.1348 93.5103 18.1348C94.354 18.1348 95.1274 18.2402 95.8306 18.4512C96.5571 18.6387 97.2134 18.8965 97.7993 19.2246C98.4087 19.5527 98.936 19.9277 99.3813 20.3496C99.8267 20.748 100.202 21.1582 100.506 21.5801C100.811 22.0254 101.069 22.4941 101.28 22.9863C101.467 23.4082 101.62 23.8887 101.737 24.4277C101.854 24.9668 101.889 25.5176 101.842 26.0801C100.061 26.127 98.6196 26.1621 97.5181 26.1855C96.4399 26.209 95.5962 26.2207 94.9868 26.2207H92.2095C91.7876 26.2207 91.2368 26.2324 90.5571 26.2559C89.8774 26.2793 89.0454 26.3145 88.061 26.3613C88.1782 27.2988 88.4712 28.0254 88.9399 28.541C89.4321 29.0332 89.9478 29.4082 90.4868 29.666C91.0962 29.9473 91.7642 30.1113 92.4907 30.1582ZM89.3267 23.8301C90.0767 23.877 90.6978 23.9121 91.1899 23.9355C91.7056 23.959 92.1274 23.9824 92.4556 24.0059C92.8071 24.0293 93.0884 24.041 93.2993 24.041H94.1782C94.7642 24.041 95.854 24.0059 97.4478 23.9355C97.3774 22.9043 97.1548 22.1191 96.7798 21.5801C96.4282 21.041 96.0532 20.6426 95.6548 20.3848C95.186 20.1035 94.6704 19.9395 94.1079 19.8926C92.5845 19.916 91.4478 20.2324 90.6978 20.8418C89.9712 21.4512 89.5142 22.4473 89.3267 23.8301Z" stroke="#001A00" stroke-width="2.8" mask="url(#path-3-outside-1_278_2068)"/>
<path d="M104.057 36.8027C104.292 36.4512 104.479 36.123 104.62 35.8184C104.76 35.5137 104.877 35.2559 104.971 35.0449C105.065 34.7871 105.135 34.5527 105.182 34.3418C105.206 34.2012 105.217 33.791 105.217 33.1113C105.217 32.4316 105.194 31.5762 105.147 30.5449C105.124 29.5137 105.088 28.3535 105.042 27.0645C105.018 25.7754 104.971 24.4629 104.901 23.127C104.854 21.791 104.795 20.4902 104.725 19.2246C104.678 17.959 104.631 16.8223 104.584 15.8145C104.538 14.7832 104.491 13.9395 104.444 13.2832C104.397 12.627 104.362 12.252 104.338 12.1582C104.292 12.0176 104.209 11.877 104.092 11.7363C103.858 11.4551 103.459 11.1855 102.897 10.9277C104.092 10.623 105.006 10.377 105.639 10.1895C106.014 10.0957 106.342 10.002 106.624 9.9082C106.881 9.81445 107.139 9.7207 107.397 9.62695C107.608 9.5332 107.842 9.42773 108.1 9.31055C108.358 9.16992 108.592 9.01758 108.803 8.85352C108.686 9.5332 108.592 10.1895 108.522 10.8223C108.452 11.4551 108.393 12.041 108.346 12.5801C108.299 13.1895 108.276 13.7754 108.276 14.3379C108.159 15.4863 108.088 16.7402 108.065 18.0996C108.065 19.4355 108.077 20.7949 108.1 22.1777C108.124 23.5605 108.17 24.9082 108.241 26.2207C108.311 27.5332 108.381 28.7285 108.452 29.8066C108.545 30.8613 108.627 31.7637 108.698 32.5137C108.792 33.2402 108.862 33.709 108.909 33.9199C109.002 34.2715 109.096 34.6113 109.19 34.9395C109.284 35.2207 109.389 35.5137 109.506 35.8184C109.624 36.1465 109.764 36.4043 109.928 36.5918H106.518C106.213 36.5918 105.92 36.6035 105.639 36.627C105.381 36.6504 105.112 36.6738 104.831 36.6973C104.549 36.7207 104.292 36.7559 104.057 36.8027Z" stroke="#001A00" stroke-width="2.8" mask="url(#path-3-outside-1_278_2068)"/>
<path d="M110.139 19.4355C110.889 19.3184 111.499 19.2246 111.967 19.1543C112.459 19.0605 112.858 18.9902 113.163 18.9434C113.514 18.873 113.784 18.8145 113.971 18.7676C114.159 18.7207 114.428 18.6504 114.78 18.5566C115.084 18.4629 115.483 18.3574 115.975 18.2402C116.467 18.0996 117.088 17.9121 117.838 17.6777C117.651 17.9121 117.499 18.123 117.381 18.3105C117.288 18.4746 117.194 18.6152 117.1 18.7324C117.006 18.873 116.924 19.002 116.854 19.1191C116.784 19.2363 116.713 19.4121 116.643 19.6465C116.596 19.834 116.538 20.1035 116.467 20.4551C116.397 20.7832 116.338 21.2168 116.292 21.7559C117.557 20.959 118.717 20.3613 119.772 19.9629C120.85 19.5645 121.788 19.2832 122.584 19.1191C123.522 18.9316 124.366 18.8613 125.116 18.9082C126.053 18.9785 126.92 19.1895 127.717 19.541C128.538 19.8691 129.276 20.2676 129.932 20.7363C130.588 21.2051 131.163 21.7207 131.655 22.2832C132.147 22.8457 132.534 23.4082 132.815 23.9707C133.002 24.3457 133.12 24.8848 133.167 25.5879C133.237 26.291 133.167 27.041 132.956 27.8379C132.745 28.6348 132.37 29.4199 131.831 30.1934C131.315 30.9434 130.577 31.541 129.616 31.9863C127.952 32.7363 126.299 33.1582 124.659 33.252C123.956 33.2988 123.229 33.2754 122.479 33.1816C121.752 33.0879 121.014 32.8887 120.264 32.584C119.538 32.2793 118.834 31.8457 118.155 31.2832C117.475 30.6973 116.854 29.9473 116.292 29.0332C116.104 30.2285 115.963 31.2715 115.87 32.1621C115.799 33.0293 115.752 33.7559 115.729 34.3418C115.706 35.0215 115.706 35.5957 115.729 36.0645C115.776 36.5332 115.87 37.0371 116.01 37.5762C116.127 38.0449 116.292 38.584 116.502 39.1934C116.737 39.8262 117.03 40.4824 117.381 41.1621C117.241 41.1152 117.042 41.0801 116.784 41.0566C116.549 41.0566 116.303 41.0801 116.045 41.127C115.764 41.1738 115.448 41.2207 115.096 41.2676C114.768 41.3379 114.405 41.4199 114.006 41.5137C113.678 41.584 113.292 41.666 112.846 41.7598C112.424 41.877 111.991 42.0059 111.545 42.1465C111.803 41.8418 112.002 41.4902 112.143 41.0918C112.307 40.7168 112.436 40.3652 112.53 40.0371C112.624 39.6387 112.706 39.2402 112.776 38.8418C112.799 38.4902 112.834 37.8223 112.881 36.8379C112.952 35.877 113.01 34.7637 113.057 33.498C113.104 32.209 113.139 30.8613 113.163 29.4551C113.209 28.0488 113.233 26.748 113.233 25.5527C113.256 24.334 113.256 23.3027 113.233 22.459C113.209 21.6152 113.163 21.123 113.092 20.9824C112.999 20.8184 112.823 20.6426 112.565 20.4551C112.354 20.291 112.049 20.127 111.651 19.9629C111.276 19.7988 110.772 19.623 110.139 19.4355ZM118.506 25.834C118.342 26.373 118.307 26.9004 118.401 27.416C118.495 27.9316 118.729 28.4121 119.104 28.8574C119.502 29.3027 120.053 29.7012 120.756 30.0527C121.483 30.3809 122.385 30.627 123.463 30.791C124.542 30.9551 125.362 30.9316 125.924 30.7207C126.487 30.5098 126.897 30.1816 127.155 29.7363C127.436 29.2676 127.624 28.7285 127.717 28.1191C127.811 27.4863 127.928 26.8301 128.069 26.1504C128.209 25.4941 128.186 24.8262 127.999 24.1465C127.811 23.4434 127.542 22.8105 127.19 22.248C126.862 21.6855 126.487 21.2285 126.065 20.877C125.667 20.502 125.315 20.3145 125.01 20.3145C124.284 20.3145 123.569 20.502 122.866 20.877C122.163 21.252 121.518 21.7207 120.932 22.2832C120.346 22.8457 119.831 23.4551 119.385 24.1113C118.963 24.7441 118.67 25.3184 118.506 25.834Z" stroke="#001A00" stroke-width="2.8" mask="url(#path-3-outside-1_278_2068)"/>
<path d="M132.815 10.6465C133.706 10.8574 134.502 11.0215 135.206 11.1387C135.932 11.2324 136.542 11.3027 137.034 11.3496C137.62 11.4199 138.135 11.4434 138.581 11.4199C139.143 11.3965 139.846 11.3145 140.69 11.1738C141.534 11.0332 142.424 10.8926 143.362 10.752C144.299 10.6113 145.225 10.4941 146.139 10.4004C147.053 10.3066 147.85 10.2949 148.53 10.3652C149.209 10.4355 149.924 10.5996 150.674 10.8574C151.424 11.0918 152.127 11.4199 152.784 11.8418C153.44 12.2402 154.002 12.7324 154.471 13.3184C154.963 13.9043 155.268 14.584 155.385 15.3574C155.502 16.1074 155.432 16.916 155.174 17.7832C154.917 18.627 154.506 19.459 153.944 20.2793C153.381 21.0762 152.678 21.8145 151.834 22.4941C150.991 23.1738 150.053 23.7246 149.022 24.1465C148.202 24.4512 147.311 24.6855 146.35 24.8496C145.53 24.9902 144.569 25.084 143.467 25.1309C142.389 25.1543 141.241 25.0371 140.022 24.7793C139.858 25.459 139.764 26.0918 139.741 26.6777C139.741 27.2402 139.764 27.7441 139.811 28.1895C139.881 28.7051 139.975 29.1738 140.092 29.5957C140.233 30.0176 140.409 30.5098 140.62 31.0723C140.807 31.541 141.018 32.1152 141.252 32.7949C141.51 33.4512 141.815 34.1895 142.167 35.0098C141.745 35.0098 141.334 35.0215 140.936 35.0449C140.538 35.0449 140.174 35.0566 139.846 35.0801C139.471 35.1035 139.12 35.127 138.792 35.1504C138.417 35.1738 137.995 35.2207 137.526 35.291C137.127 35.3379 136.624 35.4082 136.014 35.502C135.428 35.5957 134.76 35.7129 134.01 35.8535C134.502 35.1504 134.889 34.5059 135.17 33.9199C135.475 33.3105 135.698 32.7832 135.838 32.3379C136.002 31.8223 136.108 31.3535 136.155 30.9316C136.178 30.5801 136.178 29.959 136.155 29.0684C136.155 28.1777 136.143 27.1465 136.12 25.9746C136.096 24.8027 136.061 23.5723 136.014 22.2832C135.967 20.9941 135.909 19.7871 135.838 18.6621C135.768 17.5137 135.686 16.5293 135.592 15.709C135.522 14.8887 135.452 14.3496 135.381 14.0918C135.288 13.7871 135.124 13.459 134.889 13.1074C134.702 12.8027 134.432 12.4512 134.081 12.0527C133.752 11.6309 133.331 11.1621 132.815 10.6465ZM140.092 17.5723C140.069 17.8066 140.057 18.0527 140.057 18.3105C140.057 18.8027 140.092 19.4355 140.163 20.209C140.327 20.6074 140.526 20.9355 140.76 21.1934C141.018 21.4512 141.288 21.6504 141.569 21.791C141.874 21.9316 142.178 22.0254 142.483 22.0723C142.788 22.1191 143.092 22.1426 143.397 22.1426C144.1 22.1191 144.838 21.9551 145.612 21.6504C146.643 21.2051 147.37 20.5723 147.792 19.752C148.213 18.9316 148.436 18.0879 148.459 17.2207C148.483 16.3535 148.331 15.5566 148.002 14.8301C147.698 14.1035 147.323 13.6113 146.877 13.3535C146.502 13.1895 146.022 13.1191 145.436 13.1426C144.92 13.166 144.276 13.2949 143.502 13.5293C142.729 13.7637 141.78 14.1855 140.655 14.7949C140.538 15.2168 140.444 15.5918 140.374 15.9199C140.303 16.248 140.245 16.541 140.198 16.7988C140.151 17.0801 140.116 17.3379 140.092 17.5723Z" stroke="#001A00" stroke-width="2.8" mask="url(#path-3-outside-1_278_2068)"/>
<path d="M163.647 30.1582C164.303 30.1582 164.913 30.0879 165.475 29.9473C165.944 29.8301 166.389 29.6426 166.811 29.3848C167.256 29.1035 167.549 28.6934 167.69 28.1543C168.159 28.248 168.557 28.3301 168.885 28.4004C169.213 28.4473 169.495 28.4941 169.729 28.541C169.987 28.6113 170.209 28.6582 170.397 28.6816C170.584 28.7285 170.807 28.7754 171.065 28.8223C171.299 28.8691 171.581 28.9277 171.909 28.998C172.26 29.0449 172.67 29.1152 173.139 29.209C172.788 29.1621 172.424 29.1973 172.049 29.3145C171.698 29.4316 171.358 29.5605 171.03 29.7012C170.655 29.8652 170.303 30.0645 169.975 30.2988C169.764 30.4395 169.518 30.6504 169.237 30.9316C168.979 31.2129 168.604 31.4824 168.112 31.7402C167.62 31.998 166.963 32.2207 166.143 32.4082C165.346 32.5723 164.315 32.6309 163.049 32.584C161.526 32.5371 160.249 32.2676 159.217 31.7754C158.186 31.2598 157.354 30.6387 156.721 29.9121C156.088 29.1621 155.631 28.3535 155.35 27.4863C155.069 26.6191 154.917 25.8105 154.893 25.0605C154.87 24.3105 155.092 23.5254 155.561 22.7051C156.03 21.8848 156.686 21.1348 157.53 20.4551C158.397 19.7754 159.44 19.2246 160.659 18.8027C161.877 18.3574 163.213 18.1348 164.667 18.1348C165.51 18.1348 166.284 18.2402 166.987 18.4512C167.713 18.6387 168.37 18.8965 168.956 19.2246C169.565 19.5527 170.092 19.9277 170.538 20.3496C170.983 20.748 171.358 21.1582 171.663 21.5801C171.967 22.0254 172.225 22.4941 172.436 22.9863C172.624 23.4082 172.776 23.8887 172.893 24.4277C173.01 24.9668 173.045 25.5176 172.999 26.0801C171.217 26.127 169.776 26.1621 168.674 26.1855C167.596 26.209 166.752 26.2207 166.143 26.2207H163.366C162.944 26.2207 162.393 26.2324 161.713 26.2559C161.034 26.2793 160.202 26.3145 159.217 26.3613C159.334 27.2988 159.627 28.0254 160.096 28.541C160.588 29.0332 161.104 29.4082 161.643 29.666C162.252 29.9473 162.92 30.1113 163.647 30.1582ZM160.483 23.8301C161.233 23.877 161.854 23.9121 162.346 23.9355C162.862 23.959 163.284 23.9824 163.612 24.0059C163.963 24.0293 164.245 24.041 164.456 24.041H165.334C165.92 24.041 167.01 24.0059 168.604 23.9355C168.534 22.9043 168.311 22.1191 167.936 21.5801C167.584 21.041 167.209 20.6426 166.811 20.3848C166.342 20.1035 165.827 19.9395 165.264 19.8926C163.741 19.916 162.604 20.2324 161.854 20.8418C161.127 21.4512 160.67 22.4473 160.483 23.8301Z" stroke="#001A00" stroke-width="2.8" mask="url(#path-3-outside-1_278_2068)"/>
<path d="M173.983 13.6699C174.686 13.7402 175.272 13.7988 175.741 13.8457C176.233 13.8926 176.631 13.9277 176.936 13.9512C177.288 13.9746 177.569 13.9863 177.78 13.9863C177.991 14.0098 178.272 14.0098 178.624 13.9863C178.928 13.9629 179.327 13.9395 179.819 13.916C180.311 13.8691 180.932 13.7988 181.682 13.7051C181.518 13.9395 181.389 14.1504 181.295 14.3379C181.202 14.502 181.12 14.6543 181.049 14.7949L180.838 15.2168C180.792 15.3574 180.745 15.498 180.698 15.6387C180.651 15.7559 180.604 15.8965 180.557 16.0605C180.534 16.2246 180.51 16.4004 180.487 16.5879H185.901L185.409 19.4355L180.452 19.1543C180.334 20.3496 180.252 21.2754 180.206 21.9316C180.159 22.5879 180.112 23.0684 180.065 23.373L179.995 24.0059C179.924 24.8965 179.854 25.8691 179.784 26.9238C179.713 27.9551 179.69 28.916 179.713 29.8066C179.737 30.6973 179.819 31.4473 179.959 32.0566C180.1 32.6426 180.346 32.9355 180.698 32.9355C181.049 32.9355 181.377 32.8418 181.682 32.6543C181.987 32.4668 182.245 32.2441 182.456 31.9863C182.69 31.7285 182.866 31.4707 182.983 31.2129C183.1 30.9316 183.159 30.7207 183.159 30.5801C183.159 30.4395 183.124 30.2754 183.053 30.0879C182.936 29.7363 182.725 29.291 182.42 28.752C183.1 28.916 183.698 29.0801 184.213 29.2441C184.471 29.3379 184.706 29.4316 184.917 29.5254C185.151 29.6191 185.42 29.7246 185.725 29.8418C185.983 29.959 186.311 30.0996 186.709 30.2637C187.108 30.4277 187.577 30.627 188.116 30.8613C187.6 30.9551 187.225 31.1074 186.991 31.3184C186.85 31.4121 186.745 31.5176 186.674 31.6348C186.51 31.8926 186.323 32.2441 186.112 32.6895C185.901 33.1113 185.584 33.5332 185.163 33.9551C184.741 34.377 184.167 34.752 183.44 35.0801C182.737 35.4082 181.788 35.5957 180.592 35.6426C179.35 35.6895 178.401 35.4785 177.745 35.0098C177.112 34.541 176.643 34.002 176.338 33.3926C176.057 32.7598 175.893 32.1387 175.846 31.5293C175.799 30.9199 175.764 30.5098 175.741 30.2988C175.717 30.0879 175.717 29.5605 175.741 28.7168C175.764 27.873 175.799 26.9473 175.846 25.9395C175.893 24.9082 175.94 23.9238 175.987 22.9863C176.034 22.0254 176.057 21.3223 176.057 20.877C176.057 20.6426 176.069 20.3965 176.092 20.1387C176.092 19.9277 176.092 19.7051 176.092 19.4707C176.116 19.2129 176.127 18.9668 176.127 18.7324L171.03 18.6973L170.819 16.6934L175.952 16.834C175.905 16.5762 175.846 16.3418 175.776 16.1309C175.729 15.8965 175.682 15.709 175.635 15.5684C175.565 15.4043 175.495 15.2637 175.424 15.1465C175.331 15.0293 175.225 14.9004 175.108 14.7598C174.991 14.6426 174.838 14.4902 174.651 14.3027C174.463 14.1152 174.241 13.9043 173.983 13.6699Z" stroke="#001A00" stroke-width="2.8" mask="url(#path-3-outside-1_278_2068)"/>
</g>
<defs>
<filter id="filter0_d_278_2068" x="6.92358" y="6.92468" width="41.6506" height="41.6508" filterUnits="userSpaceOnUse" color-interpolation-filters="sRGB">
<feFlood flood-opacity="0" result="BackgroundImageFix"/>
<feColorMatrix in="SourceAlpha" type="matrix" values="0 0 0 0 0 0 0 0 0 0 0 0 0 0 0 0 0 0 127 0" result="hardAlpha"/>
<feOffset dx="4.5" dy="4.5"/>
<feComposite in2="hardAlpha" operator="out"/>
<feColorMatrix type="matrix" values="0 0 0 0 0.0235294 0 0 0 0 0.0784314 0 0 0 0 0.027451 0 0 0 1 0"/>
<feBlend mode="normal" in2="BackgroundImageFix" result="effect1_dropShadow_278_2068"/>
<feBlend mode="normal" in="SourceGraphic" in2="effect1_dropShadow_278_2068" result="shape"/>
</filter>
<filter id="filter1_d_278_2068" x="0" y="0" width="52.9985" height="53" filterUnits="userSpaceOnUse" color-interpolation-filters="sRGB">
<feFlood flood-opacity="0" result="BackgroundImageFix"/>
<feColorMatrix in="SourceAlpha" type="matrix" values="0 0 0 0 0 0 0 0 0 0 0 0 0 0 0 0 0 0 127 0" result="hardAlpha"/>
<feOffset dx="2" dy="2"/>
<feComposite in2="hardAlpha" operator="out"/>
<feColorMatrix type="matrix" values="0 0 0 0 0.0235294 0 0 0 0 0.0784314 0 0 0 0 0.027451 0 0 0 1 0"/>
<feBlend mode="normal" in2="BackgroundImageFix" result="effect1_dropShadow_278_2068"/>
<feBlend mode="normal" in="SourceGraphic" in2="effect1_dropShadow_278_2068" result="shape"/>
</filter>
<filter id="filter2_d_278_2068" x="56.2429" y="5.52917" width="138.656" height="41.4111" filterUnits="userSpaceOnUse" color-interpolation-filters="sRGB">
<feFlood flood-opacity="0" result="BackgroundImageFix"/>
<feColorMatrix in="SourceAlpha" type="matrix" values="0 0 0 0 0 0 0 0 0 0 0 0 0 0 0 0 0 0 127 0" result="hardAlpha"/>
<feOffset dx="2" dy="2"/>
<feComposite in2="hardAlpha" operator="out"/>
<feColorMatrix type="matrix" values="0 0 0 0 0.0235294 0 0 0 0 0.0784314 0 0 0 0 0.027451 0 0 0 1 0"/>
<feBlend mode="normal" in2="BackgroundImageFix" result="effect1_dropShadow_278_2068"/>
<feBlend mode="normal" in="SourceGraphic" in2="effect1_dropShadow_278_2068" result="shape"/>
</filter>
</defs>
</svg>
