<svg width="211" height="211" viewBox="0 0 211 211" fill="none" xmlns="http://www.w3.org/2000/svg">
<g filter="url(#filter0_d_278_2066)">
<path d="M100.508 173.163C114.745 173.163 128.02 169.048 139.235 161.969L106.382 135.614C103.145 136.314 99.4783 136.49 95.5758 136.024C81.9511 134.4 70.6066 125.595 70.2473 116.365C69.8845 107.134 80.6396 100.969 94.2679 102.592C96.2185 102.824 98.1271 103.21 99.9546 103.719C99.0609 102.04 98.2722 100.263 97.6223 98.411C93.0799 85.4612 96.7719 73.6236 105.859 71.9737C114.949 70.3206 126.003 79.4879 130.541 92.4369C131.841 96.1465 132.465 99.7618 132.481 103.075L166.673 130.507C170.825 121.355 173.163 111.207 173.163 100.5C173.163 60.3719 140.633 27.837 100.5 27.837C60.3719 27.837 27.8372 60.3719 27.8372 100.5C27.8368 140.628 60.3791 173.163 100.508 173.163Z" fill="#00FF00"/>
<path d="M100.5 29.337C139.804 29.337 171.663 61.2004 171.663 100.5C171.663 110.299 169.663 119.617 166.083 128.11L133.968 102.344C133.876 99.2756 133.3 96.0016 132.201 92.6622L131.956 91.9406C129.603 85.2245 125.553 79.463 120.865 75.5753C116.346 71.829 111.068 69.6991 106.073 70.4191L105.59 70.4982C100.37 71.4463 96.8121 75.3282 95.1975 80.5089C93.5908 85.6647 93.8538 92.1977 96.2073 98.9073C96.5216 99.8033 96.8676 100.682 97.2405 101.54C96.3213 101.362 95.3885 101.215 94.4456 101.103C87.3848 100.262 80.9494 101.421 76.2649 104.107C71.7046 106.721 68.7306 110.852 68.7385 115.929L68.7483 116.424C68.9517 121.639 72.2312 126.517 77.0168 130.232C81.8284 133.966 88.3312 136.67 95.3977 137.513V137.514C99.1736 137.965 102.759 137.838 105.99 137.223L136.628 161.8C126.037 168.056 113.695 171.663 100.507 171.663C61.2072 171.663 29.3368 139.799 29.3372 100.5C29.3372 61.2005 61.2003 29.3371 100.5 29.337Z" stroke="#001A00" stroke-width="3"/>
</g>
<g filter="url(#filter1_d_278_2066)">
<path d="M100.5 201C155.913 201 200.997 155.916 200.997 100.5C200.997 45.0863 155.913 0 100.5 0C45.0847 0 0.00317383 45.0824 0.00317383 100.5C0.00317383 155.913 45.0847 201 100.5 201ZM100.5 17.2302C146.414 17.2302 183.764 54.5849 183.764 100.5C183.764 146.414 146.411 183.769 100.5 183.769C54.5842 183.769 17.2304 146.414 17.2304 100.5C17.2343 54.5849 54.5838 17.2302 100.5 17.2302Z" fill="#00FF00"/>
<path d="M100.5 1.5C155.085 1.50005 199.497 45.9147 199.497 100.5C199.497 155.087 155.085 199.5 100.5 199.5C45.9133 199.5 1.50317 155.085 1.50317 100.5C1.50317 45.9108 45.9133 1.5 100.5 1.5ZM100.5 15.7305C53.7553 15.7305 15.7346 53.7567 15.7307 100.5L15.7375 101.594C16.3252 147.834 54.121 185.269 100.5 185.269C147.24 185.269 185.264 147.242 185.264 100.5C185.264 53.7567 147.242 15.7305 100.5 15.7305Z" stroke="#001A00" stroke-width="3"/>
</g>
<defs>
<filter id="filter0_d_278_2066" x="27.8372" y="27.837" width="165.326" height="165.326" filterUnits="userSpaceOnUse" color-interpolation-filters="sRGB">
<feFlood flood-opacity="0" result="BackgroundImageFix"/>
<feColorMatrix in="SourceAlpha" type="matrix" values="0 0 0 0 0 0 0 0 0 0 0 0 0 0 0 0 0 0 127 0" result="hardAlpha"/>
<feOffset dx="20" dy="20"/>
<feComposite in2="hardAlpha" operator="out"/>
<feColorMatrix type="matrix" values="0 0 0 0 0 0 0 0 0 0.101961 0 0 0 0 0 0 0 0 1 0"/>
<feBlend mode="normal" in2="BackgroundImageFix" result="effect1_dropShadow_278_2066"/>
<feBlend mode="normal" in="SourceGraphic" in2="effect1_dropShadow_278_2066" result="shape"/>
</filter>
<filter id="filter1_d_278_2066" x="0.00317383" y="0" width="210.994" height="211" filterUnits="userSpaceOnUse" color-interpolation-filters="sRGB">
<feFlood flood-opacity="0" result="BackgroundImageFix"/>
<feColorMatrix in="SourceAlpha" type="matrix" values="0 0 0 0 0 0 0 0 0 0 0 0 0 0 0 0 0 0 127 0" result="hardAlpha"/>
<feOffset dx="10" dy="10"/>
<feComposite in2="hardAlpha" operator="out"/>
<feColorMatrix type="matrix" values="0 0 0 0 0 0 0 0 0 0.101961 0 0 0 0 0 0 0 0 1 0"/>
<feBlend mode="normal" in2="BackgroundImageFix" result="effect1_dropShadow_278_2066"/>
<feBlend mode="normal" in="SourceGraphic" in2="effect1_dropShadow_278_2066" result="shape"/>
</filter>
</defs>
</svg>
